<?xml version="1.0" encoding="UTF-8" standalone="no"?><!DOCTYPE svg PUBLIC "-//W3C//DTD SVG 1.1//EN" "http://www.w3.org/Graphics/SVG/1.1/DTD/svg11.dtd"><svg width="69" height="89" viewBox="0 0 69 89" fill="none" xmlns="http://www.w3.org/2000/svg">
<path fill-rule="evenodd" clip-rule="evenodd" d="M61.6786 81.6555C61.9938 80.4025 62.8018 78.9872 63.377 77.9842C64.4412 76.1278 65.1535 75.0741 65.1814 72.4167C65.2199 68.7441 63.9212 65.8565 63.1052 64.3764C62.2892 62.8964 61.2709 62.1057 60.5437 61.6081C57.3666 60.5641 54.9826 59.985 52.1072 58.7929C51.1466 58.3485 50.3889 57.7316 49.4911 56.8312C48.7291 56.5561 48.2779 56.2958 47.4489 55.836C46.5622 55.348 45.3851 54.1052 44.8626 53.41C43.8537 52.1903 42.7479 52.0685 41.4616 52.0602C37.314 52.0339 36.5092 52.0448 34.5465 51.9313C31.4073 51.7485 30.1098 51.4478 27.8561 50.7302C26.7423 50.3756 25.5627 50.0395 24.4185 49.5522C23.3338 48.7185 21.6448 47.8759 20.395 46.6613C19.7044 46.2291 19.0566 46.0662 18.58 46.0393C18.5676 44.3938 18.9219 44.1693 20.3088 44.5214C20.3535 44.3874 20.3398 44.0129 20.3839 43.9013C19.8477 43.6967 19.0076 43.3761 18.5422 43.0477C18.2269 44.2424 17.0989 46.3048 15.8529 46.4131C14.8613 45.6385 14.0862 45.0094 13.0754 44.3457C11.7965 43.5069 9.36535 42.0756 8.33343 40.8251C8.07964 40.5179 6.82061 39.286 6.38501 38.8557C5.67204 38.151 4.77663 37.4482 4.01774 37.4411C3.75464 37.7752 3.64667 37.6841 3.64233 38.2228C4.21445 39.5413 4.70403 40.752 5.39343 41.9666C5.96554 42.9727 6.61522 44.034 7.66886 44.6875C7.88914 44.9318 8.22546 45.3582 8.44265 45.759C8.63873 46.1188 8.51711 46.3253 8.20312 46.4458C8.01449 46.5183 7.93134 46.4766 7.56461 46.5292C6.73747 47.3847 7.41073 48.1311 8.45568 48.4729C9.04393 48.6659 9.45347 48.7352 10.0889 48.8756C10.4705 48.9603 10.9905 49.1065 11.5179 49.2206C12.2086 50.2364 12.7825 52.114 13.0351 53.6403C12.6255 53.3453 12.144 53.0131 11.7345 52.7181C10.7336 52.2564 9.82826 51.5876 9.49814 51.165C8.80751 50.7545 8.03124 50.2569 7.34061 49.8696C5.63729 49.4201 5.35558 47.3552 4.92183 46.0175C3.62992 43.0599 2.58063 40.9129 1.52202 38.5338C0.781128 36.8678 0.47087 36.4805 0.00858495 34.767C-0.0702206 34.4733 0.406336 33.9936 0.912057 33.6839C1.23907 33.4838 1.29988 33.0567 1.70942 33.2408C2.01285 33.3331 3.31842 33.7608 4.25788 34.3034C7.56586 35.4243 10.4624 37.3077 13.9479 38.3472C13.8293 36.8069 13.3863 36.2503 11.7674 36.4022C11.2151 36.4535 11.2077 35.6712 11.6209 35.2095C12.5784 34.1385 13.3733 33.9103 14.4871 33.2978C15.1926 32.9112 14.8638 31.9659 14.4083 31.9242C13.0996 31.8056 12.0174 32.9573 11.6768 32.5238C11.1816 31.594 12.4655 30.1742 13.5526 29.438C14.6391 28.7018 16.021 28.7493 15.7077 27.6688C15.5997 27.2981 14.8036 27.2173 14.116 27.2955C13.5259 27.3616 12.955 27.6001 12.6529 27.4668C11.459 26.9428 13.8852 25.0344 15.246 24.4425C16.4622 23.9141 17.7628 24.0462 18.7258 23.4915C18.9678 23.3524 19.0901 22.8361 18.8952 22.6207C18.1407 22.0313 16.6881 23.0798 16.3611 22.79C15.6866 22.1923 16.7569 21.4452 17.3098 21.0297C19.3985 19.4598 20.8381 18.95 23.3518 18.0516C24.3837 17.6829 25.0049 17.6046 26.0951 17.4559C29.1648 17.0365 33.424 16.6568 34.2698 13.605C34.7935 11.7139 33.5686 9.99209 31.38 10.0857C30.3779 10.1287 29.9181 10.4621 29.758 10.6763C29.7028 10.8213 29.8529 10.8681 30.2885 10.6847C31.0251 10.3743 32.0967 10.3268 32.8631 10.8007C33.6288 11.2746 34.0241 12.2949 33.6294 13.5512C33.4538 14.1097 32.7923 14.8401 32.281 15.2056C30.9562 16.1547 29.4192 16.5703 27.9802 16.3727C26.8379 16.147 25.662 15.7482 25.1221 14.9677C24.3397 14.1341 23.4877 14.211 22.7449 13.276C21.9879 13.0221 21.5697 13.1048 21.0156 12.7271C20.3231 12.2539 20.1685 10.861 20.2691 9.74456C21.3618 9.66697 22.1232 9.60733 23.3208 9.78048C24.3868 9.49447 26.0417 10.1075 27.1587 9.93117C27.6936 9.40148 28.2787 9.31042 28.9085 9.26617C29.7177 9.20974 30.5814 9.22 31.3043 8.71596C31.3627 7.54115 30.3115 6.69852 30.0757 5.37045C29.902 4.39315 29.8219 1.8255 31.6661 0.602591C31.869 0.461511 32.1265 0.617982 31.82 0.987354C30.7688 2.5309 30.8278 4.28349 32.2072 6.58566C32.5305 7.12497 32.9394 7.67582 33.3477 8.17281C33.5841 8.41393 34.1463 8.32415 34.0216 7.82716C33.5078 6.70301 33.2484 6.07841 33.1746 5.23386C33.1169 4.57719 33.182 3.66723 33.3496 3.01121C33.6505 1.83447 34.9579 -0.410619 35.6529 0.0652051C35.8142 0.175504 35.4916 0.448045 35.2638 0.928998C34.8258 1.85243 34.598 2.88295 34.688 4.04686C34.7867 5.31658 35.4134 6.81908 36.3938 7.8246C37.4375 8.89552 38.6419 9.32325 39.412 9.14754C40.1827 8.97247 40.8535 8.45881 41.1631 6.42791C41.482 4.33479 42.9794 1.9608 45.6805 0.922586C46.1583 0.72315 46.7825 0.906554 46.4282 1.20731C45.5427 1.67929 44.8744 2.16088 44.2601 3.07213C42.617 5.51153 41.7551 10.2255 45.4633 10.7834C46.8061 10.9861 47.7995 10.6 48.8923 9.68364C49.7746 8.94426 50.6266 8.10419 51.419 6.83127C51.9613 5.95978 52.5012 4.92027 52.9039 3.43124C52.9566 3.25233 53.0944 3.26451 53.2073 3.43381C53.7484 4.53423 53.2607 6.03545 52.4677 7.44111C51.723 8.76149 50.8121 9.81446 50.4386 10.5199C50.2667 10.8456 50.1513 11.2015 50.1978 11.5331C50.2574 11.9595 50.5521 12.3468 51.0033 12.5828C52.5434 13.3863 54.0363 13.6935 55.5125 13.6986C57.6695 13.707 59.6806 13.0118 61.8468 11.4587C62.5256 10.9726 63.3217 10.2704 63.9646 9.56757C64.8222 8.63003 65.4551 7.7284 65.635 7.71109C65.7815 7.69762 65.8007 7.80343 65.7951 7.89642C65.6958 9.50088 63.735 11.4176 62.3134 12.5585C61.7692 12.9714 60.6814 13.816 60.5207 14.3739C60.1937 15.5032 60.8037 16.5459 61.7512 17.0833C62.1974 17.3366 62.6479 17.3308 63.2305 17.4219C63.524 17.504 63.5166 17.663 63.2529 17.7585C60.2918 18.387 60.0305 16.2195 58.2037 15.4224C55.9097 14.422 53.4028 15.0613 51.2906 14.1745C49.7852 13.5422 48.932 12.7598 47.5364 12.5706C46.677 12.4533 45.4776 12.5976 44.3017 12.3231C43.446 12.1724 43.1972 11.9377 42.2447 11.6209C40.5221 11.0483 38.74 10.786 37.2638 11.492C37.216 12.2314 38.3621 11.6735 39.2848 11.8896C41.7687 12.47 41.258 13.4556 43.9318 13.891C43.508 14.8991 41.8426 15.6866 41.2394 15.8091C40.1026 16.0386 38.6624 16.1419 37.5536 15.65C37.6032 17.243 37.6137 19.0719 37.2762 20.4448C36.6687 23.0176 36.5676 23.3895 36.4304 23.8923C36.0128 24.0994 34.7867 26.8505 34.4981 27.6777C34.3771 28.1003 34.4392 27.9875 34.3263 28.5467C33.787 28.3325 33.6871 28.1087 33.4284 27.9265C32.7576 30.0254 33.4581 32.2404 34.088 32.9022C36.6395 34.3348 39.4784 36.9249 42.9986 37.9913C45.2306 38.4915 48.3896 38.2344 50.8388 38.3184C54.225 38.5345 56.027 39.549 58.962 41.3471C62.4388 42.7342 64.3326 43.8294 67.4035 43.2318C67.3042 44.5688 64.4871 44.4893 64.6025 44.9414C64.7843 45.0568 65.1206 44.8933 65.0071 45.2165C63.7431 45.7379 61.9839 45.0581 61.2902 44.3803C60.5809 43.6877 60.2235 43.235 59.6166 43.1625C59.858 45.5846 59.7215 46.8486 59.2642 48.9083C58.8596 50.609 58.501 51.5093 58.7361 53.3767C58.9725 55.2486 59.5018 56.787 60.9768 58.0189C61.8623 58.7583 62.996 59.202 64.2507 59.5945C65.5506 59.808 66.245 59.6458 66.0973 61.4888C66.0042 62.6501 66.474 66.7812 66.7209 67.5828C66.8121 67.8797 67.0765 69.1571 67.6685 70.9783C68.2828 72.1448 69.4444 74.0994 68.822 75.1408C68.4677 75.7327 67.9223 74.8568 67.4333 74.8811C65.7399 75.5147 65.7697 76.7197 65.7083 77.9874C65.6574 79.0378 65.6865 79.7028 65.4718 80.1094C64.0794 80.9341 62.6776 81.3785 61.6786 81.6555ZM17.98 36.4644C18.6166 35.4512 20.1611 35.4448 21.4245 35.2479C22.6357 35.0588 23.5895 34.6272 24.488 34.2084C23.8569 35.1569 23.0384 35.7392 21.3841 35.9322C19.9253 36.1028 19.5213 35.9251 17.98 36.4644ZM17.2496 33.9776C17.9545 33.1645 18.5676 32.6931 20.0811 32.4251C21.3848 32.1936 21.3959 32.6643 24.1144 31.6376C23.5696 32.611 22.0444 33.1221 20.5992 33.2369C19.064 33.3594 17.9142 33.7185 17.2496 33.9776ZM18.1339 30.65C18.6427 29.6381 19.9433 29.304 21.6398 28.9628C22.9441 28.7006 24.4966 28.2658 25.1004 27.8086C24.4911 28.598 23.5926 29.3187 22.2678 29.5374C20.7493 29.7882 19.558 30.0799 18.1339 30.65ZM25.9145 30.2775C26.6368 28.8532 27.6166 28.6691 28.3978 28.571C29.0978 28.4832 30.1719 27.8669 30.7105 27.1647C30.7235 27.8695 29.9007 29.2918 28.3569 29.5079C27.8766 29.5746 26.8 29.5708 25.9145 30.2775ZM19.329 27.7136C19.6262 27.0775 20.9523 26.4343 22.2045 26.0752C23.5088 25.7007 24.8683 25.3204 25.3728 25.1979C24.5345 25.9636 23.7241 26.324 22.3596 26.6421C21.3413 26.8794 20.8009 27.0307 19.329 27.7136ZM27.199 27.268C27.4702 26.7075 28.3165 26.0566 29.3888 25.82C29.9293 25.7007 30.7217 25.5263 31.2131 25.3057C30.9581 25.9046 30.2495 26.6113 29.2113 26.7248C28.0255 26.8543 27.9473 27.0461 27.199 27.268ZM21.2867 24.9017C21.8812 24.2309 22.9975 23.6473 24.0859 23.4562C24.2888 23.421 26.2459 23.1157 27.042 22.5815C26.674 23.5685 25.2171 23.9321 24.1132 24.0674C23.1836 24.1815 22.632 24.4149 21.2867 24.9017ZM28.6721 24.4823C28.924 24.202 29.7692 23.6512 30.7663 23.6307C31.5321 23.2549 31.7344 23.1574 32.6074 23.0061C32.2717 23.6127 31.3496 24.0731 30.9159 24.2854C30.4753 24.4021 29.3323 24.6112 28.6721 24.4823ZM22.7561 22.8509C23.1911 22.1679 24.0908 21.7947 25.0309 21.5799C25.917 21.3772 26.7895 21.1727 27.5701 20.7616C27.1326 21.5311 26.2912 21.9018 25.3461 22.0474C24.3943 22.1936 23.5051 22.5623 22.7561 22.8509ZM29.812 22.5187C30.0763 21.9274 31.38 21.8422 31.5829 21.8563C32.4324 21.4939 33.0139 21.1996 33.5953 21.374C33.1677 21.7639 32.5565 22.0108 31.7319 22.4757C31.4061 22.5399 31.3956 22.4879 29.812 22.5187ZM30.5386 20.6654C31.6996 20.2608 32.7774 20.0472 34.0576 19.9171C33.7361 20.5327 32.013 21.0175 30.5386 20.6654ZM41.7005 45.9226C40.815 44.513 41.1848 43.6242 41.1494 42.5039C41.1259 41.7389 40.7896 41.1162 40.6636 40.6667C41.2177 40.9392 41.7532 41.803 41.8295 42.8964C41.8885 43.741 41.5714 44.3527 41.7005 45.9226ZM43.508 46.6132C42.4674 45.6975 42.9117 44.4489 42.9552 43.3299C42.9849 42.5649 42.7473 41.7793 42.5853 41.3073C43.1593 41.5375 43.5533 42.5777 43.5521 43.6743C43.5515 44.5201 43.3535 45.1768 43.508 46.6132ZM45.0537 47.1423C44.2694 46.449 44.4556 45.171 44.5275 44.0533C44.5989 42.9548 44.2204 42.0993 43.9294 41.6273C44.504 41.8575 45.2877 42.6752 45.2864 43.7717C45.2852 44.6176 44.8998 45.7058 45.0537 47.1423ZM31.1293 13.8487C30.5262 13.8506 30.3072 13.5191 30.139 12.9342C30.0521 12.8887 29.8691 12.8316 29.7828 12.7861C29.7617 12.6739 29.7406 12.5835 29.7419 12.4943C30.2476 12.5482 30.5349 11.9614 31.161 11.9903C31.7933 12.0192 31.9273 12.4796 32.5243 13.1818C32.057 13.1869 31.8231 13.8468 31.1293 13.8487ZM39.7359 14.9357C38.9379 14.8286 38.0264 14.3989 37.2979 14.3989C37.8284 13.369 38.8709 13.337 39.8426 13.5486C40.7548 13.7467 41.021 14.086 42.6641 14.1328C42.007 14.9203 40.3819 15.0222 39.7359 14.9357ZM26.2508 12.2539C25.948 12.1166 24.8001 11.9114 24.0418 11.837C23.7148 11.9916 23.7148 11.9916 23.5417 11.9672C23.5435 11.7652 23.5826 11.5735 23.6062 11.3715C23.4225 11.2695 23.2252 11.2522 23.0391 11.3522C22.7567 11.5042 22.4316 11.5299 22.1592 11.2304C22.2895 11.2092 22.4198 11.2176 22.5718 11.1964C22.5724 11.1066 22.573 11.0393 22.5737 10.972C22.8392 10.9963 23.2004 10.9662 23.4815 10.8617C23.7409 10.7661 23.9965 10.8245 24.3366 10.8456C24.4706 11.056 24.6927 11.1413 24.8994 11.1496C25.2704 11.719 26.2707 11.803 26.9992 11.9069C26.9986 11.9743 26.9886 12.1096 26.9874 12.1994C26.7702 12.2199 26.468 12.2109 26.2508 12.2539ZM40.3111 61.4074L36.5707 65.6737L42.1522 86.9236L46.399 78.1048L40.3111 61.4074ZM39.9773 60.5628L36.1983 64.7484C35.9663 63.4299 35.3507 62.4007 34.0228 62.0339C32.7576 61.6844 31.2293 62.225 30.5932 63.8468L23.7545 85.0575L22.4092 86.6882L30.3016 63.6666C30.6441 62.7008 31.4955 62.1288 32.2655 61.458L36.0935 58.1228C36.8269 57.5854 37.6026 57.5693 38.2274 57.7938C38.8473 58.0163 39.3512 58.2113 39.9773 60.5628ZM36.0606 65.9777L36.0792 65.9931L40.3955 86.3637L39.7862 87.9823L35.9266 66.2259C35.9321 66.2175 35.9371 66.2086 35.9421 66.1996L35.9427 66.1989C35.9446 66.1951 35.947 66.1912 35.9489 66.1874C35.9501 66.1868 35.9508 66.1848 35.9514 66.1835C35.9588 66.1714 35.9663 66.1585 35.9731 66.1457C35.9743 66.1444 35.975 66.1431 35.9756 66.1419C35.9762 66.1406 35.9768 66.1393 35.9774 66.138C35.9787 66.1367 35.9787 66.1355 35.9793 66.1342C35.9805 66.1329 35.9812 66.1316 35.9818 66.1303C35.9824 66.129 35.983 66.1278 35.9837 66.1265C35.9849 66.1252 35.9855 66.1239 35.9861 66.1226C35.9868 66.1213 35.9874 66.1201 35.988 66.1188C35.9886 66.1181 35.9899 66.1162 35.9905 66.1149C35.9911 66.1136 35.9917 66.1124 35.9923 66.1111C35.9967 66.1034 36.001 66.0957 36.0054 66.088C36.006 66.0867 36.0066 66.0854 36.0072 66.0842C36.0079 66.0829 36.0085 66.0809 36.0091 66.0803C36.0103 66.0777 36.0116 66.0745 36.0134 66.0726C36.0141 66.0713 36.0147 66.07 36.0153 66.0681C36.0159 66.0668 36.0165 66.0656 36.0172 66.0643C36.0184 66.0617 36.0203 66.0591 36.0215 66.0572C36.0221 66.0553 36.0227 66.054 36.0234 66.0527C36.024 66.0514 36.0246 66.0502 36.0258 66.0489C36.0258 66.0476 36.0265 66.0463 36.0277 66.045C36.0321 66.0373 36.0358 66.029 36.0389 66.0213C36.0401 66.02 36.0407 66.0187 36.0414 66.0175C36.042 66.0162 36.0426 66.0149 36.0438 66.0136C36.0445 66.0123 36.0445 66.011 36.0451 66.0098C36.0457 66.0085 36.0469 66.0066 36.0469 66.0059C36.0476 66.0046 36.0482 66.0027 36.0488 66.0021C36.05 65.9995 36.0513 65.9969 36.0525 65.9957C36.0525 65.9944 36.0525 65.9944 36.0531 65.9937C36.0538 65.9924 36.0544 65.9912 36.055 65.9899V65.9892C36.0575 65.9854 36.0587 65.9816 36.0606 65.9777ZM35.4736 66.796L38.3702 86.962L37.6553 88.5332L35.285 66.9665C35.3501 66.912 35.4128 66.855 35.4736 66.796ZM34.5043 67.4385L36.0898 87.3635L35.2775 88.8826L34.2884 67.52C34.3616 67.4949 34.4336 67.468 34.5043 67.4385ZM33.7647 67.6469L33.9465 87.545L33.0294 89L33.5413 67.6732C33.6164 67.6668 33.6908 67.6578 33.7647 67.6469ZM32.8773 67.6598L31.6239 87.5103L30.7062 88.9654L32.6422 67.6213C32.7197 67.6373 32.7979 67.6501 32.8773 67.6598ZM32.0887 67.4565L29.6624 87.1871L28.6578 88.5793L31.8647 67.3558C31.9373 67.3917 32.0123 67.4257 32.0887 67.4565ZM31.2621 66.964L27.5657 86.7151L26.5617 88.108L31.0599 66.7799C31.1244 66.8441 31.1914 66.9056 31.2621 66.964ZM30.6236 66.2265L25.4237 86.0822L24.4191 87.4738L30.4673 65.9309C30.5138 66.0328 30.5653 66.1316 30.6236 66.2265ZM31.1473 12.3558C31.457 12.3558 31.7095 12.6168 31.7095 12.9368C31.7095 13.2568 31.457 13.5172 31.1473 13.5172C30.8377 13.5172 30.5858 13.2568 30.5858 12.9368C30.5858 12.6168 30.8377 12.3558 31.1473 12.3558ZM43.41 8.34723C43.4882 7.24681 44.6684 6.0316 45.7785 5.2967C46.7366 4.66377 47.2311 4.49639 47.977 4.36301C48.4858 4.27259 48.3741 4.57271 48.3003 4.75419C46.5051 5.52179 45.0016 7.19294 44.2793 9.75418C44.2142 9.75354 43.4534 8.34723 43.41 8.34723ZM51.6194 12.0448C51.0591 12.1878 50.6527 11.0188 51.2819 10.8136C53.2477 10.1736 54.6376 8.56462 55.5783 6.52474C55.6695 6.18743 55.8458 6.17204 56.0028 6.53371C56.1728 7.56552 55.5523 8.81472 54.6966 9.79715C53.6802 10.9643 52.6904 11.771 51.6194 12.0448ZM53.0268 19.3374C52.4149 18.8641 51.8676 18.539 51.3005 17.9522C50.4429 17.066 49.6555 15.7982 49.0126 13.9218C49.5959 14.1963 50.2462 14.4945 50.8518 14.7689C51.0728 16.4875 52.1357 17.6861 53.4562 18.9673C53.5871 19.1822 53.4146 19.5259 53.0268 19.3374Z" fill="#4F535F"/>
</svg>
