<?xml version="1.0" encoding="UTF-8" standalone="no"?><!DOCTYPE svg PUBLIC "-//W3C//DTD SVG 1.1//EN" "http://www.w3.org/Graphics/SVG/1.1/DTD/svg11.dtd"><svg width="41" height="51" viewBox="0 0 41 51" fill="none" xmlns="http://www.w3.org/2000/svg">
<path fill-rule="evenodd" clip-rule="evenodd" d="M36.2304 46.4125C36.4155 45.7002 36.8901 44.8958 37.228 44.3257C37.8531 43.2705 38.2715 42.6716 38.2879 41.1612C38.3105 39.0737 37.5476 37.4324 37.0683 36.5911C36.589 35.7499 35.9909 35.3005 35.5637 35.0176C33.6975 34.4242 32.2971 34.0951 30.608 33.4175C30.0438 33.1649 29.5987 32.8143 29.0713 32.3025C28.6237 32.1461 28.3587 31.9981 27.8718 31.7368C27.3509 31.4594 26.6594 30.753 26.3525 30.3579C25.7599 29.6646 25.1103 29.5954 24.3547 29.5907C21.9185 29.5757 21.4457 29.5819 20.2928 29.5174C18.4488 29.4135 17.6867 29.2426 16.3628 28.8347C15.7086 28.6331 15.0157 28.4421 14.3435 28.1651C13.7064 27.6913 12.7142 27.2123 11.9802 26.522C11.5745 26.2763 11.1939 26.1837 10.914 26.1684C10.9067 25.2331 11.1148 25.1056 11.9295 25.3057C11.9557 25.2295 11.9477 25.0166 11.9736 24.9532C11.6587 24.8369 11.1651 24.6547 10.8918 24.4681C10.7066 25.1471 10.044 26.3193 9.31205 26.3809C8.72959 25.9406 8.27434 25.583 7.68057 25.2058C6.92935 24.729 5.50126 23.9155 4.8951 23.2047C4.74603 23.0301 4.00647 22.3299 3.75059 22.0853C3.33179 21.6848 2.80582 21.2853 2.36004 21.2813C2.2055 21.4712 2.14208 21.4194 2.13952 21.7256C2.47559 22.475 2.76317 23.1632 3.16813 23.8535C3.50419 24.4254 3.88582 25.0286 4.50473 25.4001C4.63413 25.5389 4.83168 25.7813 4.95926 26.0091C5.07444 26.2136 5.00299 26.331 4.81856 26.3995C4.70775 26.4407 4.65891 26.417 4.4435 26.4469C3.95762 26.9331 4.3531 27.3574 4.96691 27.5517C5.31245 27.6614 5.55302 27.7008 5.92626 27.7806C6.15042 27.8287 6.45587 27.9118 6.76569 27.9767C7.17137 28.554 7.50853 29.6213 7.65688 30.4888C7.41631 30.3211 7.13347 30.1323 6.8929 29.9646C6.30497 29.7022 5.77317 29.322 5.57926 29.0818C5.17358 28.8485 4.7176 28.5657 4.31191 28.3455C3.31137 28.09 3.14589 26.9164 2.89111 26.156C2.13223 24.475 1.51587 23.2546 0.894045 21.9024C0.458839 20.9554 0.276591 20.7353 0.00504285 19.7613C-0.041248 19.5944 0.238684 19.3217 0.535747 19.1457C0.727836 19.032 0.763556 18.7892 1.00412 18.8938C1.18236 18.9463 1.94926 19.1894 2.5011 19.4978C4.44422 20.1349 6.14569 21.2055 8.19305 21.7963C8.12343 20.9208 7.86318 20.6044 6.91222 20.6908C6.58782 20.7199 6.58344 20.2753 6.8262 20.0128C7.38861 19.4041 7.85553 19.2744 8.5098 18.9263C8.92423 18.7065 8.73105 18.1692 8.46351 18.1455C7.69479 18.0781 7.05911 18.7327 6.859 18.4863C6.56814 17.9578 7.32228 17.1508 7.96087 16.7324C8.5991 16.3139 9.41083 16.3409 9.22676 15.7267C9.16334 15.5161 8.69569 15.4701 8.29183 15.5146C7.9452 15.5521 7.60986 15.6877 7.43235 15.6119C6.73106 15.3141 8.15624 14.2294 8.95558 13.893C9.66998 13.5926 10.434 13.6677 10.9997 13.3524C11.1418 13.2733 11.2136 12.9799 11.0992 12.8574C10.6559 12.5225 9.80266 13.1184 9.61057 12.9537C9.21437 12.614 9.84312 12.1893 10.1679 11.9531C11.3948 11.0608 12.2404 10.7711 13.717 10.2604C14.3231 10.0508 14.688 10.0064 15.3284 9.92179C17.1316 9.68341 19.6334 9.46763 20.1303 7.733C20.4379 6.65811 19.7184 5.67944 18.4328 5.73266C17.8441 5.75708 17.5741 5.94661 17.48 6.06836C17.4476 6.15073 17.5358 6.17734 17.7917 6.07309C18.2243 5.89668 18.8538 5.86971 19.3039 6.13907C19.7537 6.40843 19.9859 6.98834 19.7541 7.70239C19.6509 8.01986 19.2624 8.43502 18.962 8.64278C18.1839 9.18223 17.281 9.41843 16.4357 9.30616C15.7647 9.17786 15.074 8.95114 14.7569 8.50755C14.2972 8.03371 13.7968 8.07745 13.3605 7.54602C12.9158 7.40168 12.6701 7.4487 12.3446 7.23401C11.9379 6.96501 11.8471 6.17333 11.9062 5.53875C12.548 5.49464 12.9953 5.46074 13.6987 5.55916C14.3249 5.39659 15.2971 5.74505 15.9531 5.64481C16.2673 5.34374 16.6111 5.29198 16.981 5.26683C17.4563 5.23476 17.9637 5.24059 18.3883 4.9541C18.4226 4.28634 17.8051 3.8074 17.6666 3.05253C17.5646 2.49704 17.5176 1.0376 18.6008 0.342509C18.72 0.26232 18.8713 0.351257 18.6912 0.561206C18.0738 1.43854 18.1084 2.43471 18.9187 3.74324C19.1086 4.04978 19.3488 4.36289 19.5886 4.64537C19.7275 4.78242 20.0577 4.73139 19.9845 4.44891C19.6827 3.80995 19.5303 3.45493 19.4869 2.97489C19.453 2.60165 19.4913 2.08443 19.5897 1.71155C19.7665 1.0427 20.5345 -0.233393 20.9427 0.0370622C21.0375 0.0997552 20.8479 0.254666 20.7142 0.528037C20.4568 1.05291 20.3231 1.63865 20.3759 2.30021C20.4339 3.02191 20.802 3.87592 21.3779 4.44745C21.991 5.05615 22.6985 5.29927 23.1508 5.1994C23.6035 5.09989 23.9975 4.80793 24.1794 3.65358C24.3668 2.46387 25.2463 1.11451 26.8329 0.524392C27.1136 0.411034 27.4803 0.515279 27.2722 0.686227C26.752 0.954495 26.3595 1.22823 25.9986 1.74618C25.0334 3.13272 24.5272 5.81212 26.7054 6.12923C27.4941 6.24441 28.0777 6.02498 28.7196 5.50412C29.2379 5.08386 29.7383 4.60637 30.2038 3.88285C30.5224 3.3875 30.8395 2.79665 31.076 1.95029C31.107 1.8486 31.1879 1.85553 31.2543 1.95175C31.5721 2.57723 31.2856 3.43051 30.8198 4.22948C30.3824 4.97997 29.8473 5.57848 29.6279 5.97942C29.5269 6.16458 29.4591 6.36688 29.4865 6.55532C29.5215 6.79771 29.6946 7.01786 29.9596 7.152C30.8643 7.60871 31.7412 7.7833 32.6084 7.78622C33.8754 7.79096 35.0567 7.39585 36.3291 6.51304C36.7279 6.23675 37.1955 5.83763 37.5732 5.43815C38.0769 4.90525 38.4487 4.39277 38.5544 4.38293C38.6404 4.37528 38.6517 4.43542 38.6484 4.48827C38.5901 5.40024 37.4383 6.48971 36.6032 7.13815C36.2836 7.37288 35.6446 7.85292 35.5502 8.17003C35.3581 8.81191 35.7164 9.40458 36.273 9.71002C36.5351 9.854 36.7997 9.85072 37.142 9.90248C37.3144 9.94913 37.31 10.0395 37.1551 10.0938C35.4157 10.451 35.2623 9.21905 34.1892 8.76598C32.8416 8.19737 31.3691 8.56077 30.1283 8.05667C29.2441 7.69728 28.7429 7.2526 27.9232 7.14507C27.4183 7.07837 26.7138 7.16038 26.023 7.00438C25.5204 6.91872 25.3742 6.78532 24.8147 6.60526C23.8029 6.27976 22.7561 6.13068 21.8889 6.53199C21.8609 6.95226 22.5341 6.63515 23.0761 6.75798C24.5352 7.08785 24.2352 7.64808 25.8058 7.89557C25.5569 8.46855 24.5785 8.91615 24.2243 8.98577C23.5565 9.11626 22.7105 9.17494 22.0592 8.89538C22.0883 9.80078 22.0945 10.8403 21.8962 11.6207C21.5394 13.0831 21.48 13.2945 21.3994 13.5802C21.1541 13.698 20.4339 15.2616 20.2644 15.7318C20.1933 15.972 20.2298 15.9079 20.1634 16.2257C19.8467 16.104 19.788 15.9768 19.636 15.8733C19.242 17.0663 19.6535 18.3252 20.0235 18.7014C21.5223 19.5157 23.1898 20.9879 25.2576 21.594C26.5687 21.8783 28.4243 21.7322 29.863 21.7799C31.852 21.9027 32.9105 22.4794 34.6346 23.5014C36.6769 24.2898 37.7893 24.9124 39.5932 24.5727C39.5349 25.3326 37.8801 25.2874 37.9478 25.5444C38.0546 25.61 38.2522 25.5171 38.1855 25.7008C37.443 25.9971 36.4097 25.6107 36.0022 25.2255C35.5856 24.8318 35.3756 24.5745 35.0191 24.5333C35.1609 25.91 35.0807 26.6284 34.8121 27.7992C34.5745 28.7658 34.3638 29.2776 34.5019 30.339C34.6408 31.4029 34.9517 32.2773 35.8181 32.9775C36.3382 33.3978 37.0042 33.65 37.7412 33.8731C38.5048 33.9945 38.9127 33.9023 38.8259 34.9498C38.7712 35.6099 39.0472 37.958 39.1922 38.4136C39.2458 38.5824 39.4011 39.3084 39.7488 40.3436C40.1097 41.0066 40.792 42.1176 40.4264 42.7096C40.2183 43.046 39.8979 42.5481 39.6107 42.5619C38.616 42.9221 38.6335 43.6069 38.5974 44.3275C38.5675 44.9246 38.5846 45.3026 38.4585 45.5337C37.6406 46.0024 36.8172 46.255 36.2304 46.4125ZM10.5615 20.7261C10.9355 20.1502 11.8427 20.1466 12.5849 20.0347C13.2963 19.9272 13.8566 19.6819 14.3844 19.4439C14.0137 19.9829 13.5329 20.3139 12.5612 20.4236C11.7042 20.5206 11.4669 20.4196 10.5615 20.7261ZM10.1325 19.3126C10.5466 18.8505 10.9067 18.5826 11.7957 18.4302C12.5615 18.2986 12.5681 18.5662 14.1649 17.9826C13.8449 18.5359 12.949 18.8264 12.1001 18.8916C11.1983 18.9613 10.5229 19.1654 10.1325 19.3126ZM10.6519 17.4213C10.9508 16.8461 11.7148 16.6562 12.7113 16.4623C13.4775 16.3132 14.3895 16.0661 14.7441 15.8062C14.3862 16.2549 13.8584 16.6646 13.0802 16.7889C12.1883 16.9314 11.4884 17.0972 10.6519 17.4213ZM15.2223 17.2095C15.6466 16.4 16.2221 16.2953 16.681 16.2396C17.0922 16.1896 17.7231 15.8394 18.0395 15.4402C18.0472 15.8408 17.5638 16.6493 16.657 16.7721C16.3749 16.81 15.7425 16.8078 15.2223 17.2095ZM11.354 15.7523C11.5285 15.3907 12.3075 15.0251 13.043 14.821C13.8092 14.6081 14.6078 14.392 14.9041 14.3223C14.4117 14.7575 13.9357 14.9624 13.1341 15.1432C12.536 15.278 12.2185 15.3641 11.354 15.7523ZM15.9768 15.4989C16.1361 15.1804 16.6333 14.8104 17.2631 14.6759C17.5806 14.6081 18.0461 14.509 18.3348 14.3836C18.1849 14.724 17.7687 15.1257 17.1589 15.1902C16.4623 15.2638 16.4164 15.3728 15.9768 15.4989ZM12.5039 14.1539C12.8531 13.7727 13.5088 13.441 14.1482 13.3324C14.2674 13.3123 15.417 13.1388 15.8846 12.8352C15.6685 13.3962 14.8126 13.6028 14.1642 13.6797C13.6182 13.7446 13.2942 13.8773 12.5039 14.1539ZM16.8421 13.9156C16.9901 13.7563 17.4866 13.4432 18.0723 13.4315C18.5221 13.2179 18.6409 13.1625 19.1538 13.0765C18.9566 13.4213 18.4149 13.683 18.1602 13.8037C17.9014 13.87 17.23 13.9888 16.8421 13.9156ZM13.3671 12.9883C13.6226 12.6001 14.1511 12.388 14.7033 12.2659C15.2238 12.1507 15.7363 12.0344 16.1948 11.8008C15.9378 12.2382 15.4436 12.4488 14.8885 12.5316C14.3293 12.6147 13.807 12.8243 13.3671 12.9883ZM17.5117 12.7995C17.667 12.4634 18.4328 12.4149 18.552 12.423C19.051 12.217 19.3925 12.0497 19.734 12.1489C19.4829 12.3705 19.1239 12.5108 18.6395 12.7751C18.4481 12.8115 18.4419 12.782 17.5117 12.7995ZM17.9385 11.7461C18.6205 11.5161 19.2536 11.3947 20.0056 11.3207C19.8168 11.6706 18.8046 11.9462 17.9385 11.7461ZM24.4951 26.1021C23.9749 25.3009 24.1922 24.7957 24.1714 24.159C24.1576 23.7241 23.96 23.3702 23.886 23.1147C24.2115 23.2696 24.5261 23.7606 24.5709 24.382C24.6055 24.8621 24.4193 25.2098 24.4951 26.1021ZM25.5569 26.4946C24.9456 25.9741 25.2066 25.2645 25.2321 24.6284C25.2496 24.1936 25.11 23.7471 25.0148 23.4788C25.352 23.6097 25.5835 24.2009 25.5827 24.8242C25.5824 25.3049 25.4661 25.6782 25.5569 26.4946ZM26.4648 26.7953C26.0041 26.4013 26.1134 25.6749 26.1557 25.0396C26.1976 24.4152 25.9753 23.929 25.8043 23.6607C26.1419 23.7915 26.6022 24.2563 26.6015 24.8796C26.6008 25.3603 26.3744 25.9789 26.4648 26.7953ZM18.2855 7.87151C17.9313 7.8726 17.8026 7.68416 17.7038 7.35174C17.6528 7.32586 17.5453 7.29342 17.4946 7.26754C17.4822 7.20376 17.4698 7.15236 17.4705 7.1017C17.7676 7.13232 17.9364 6.7988 18.3041 6.81521C18.6756 6.83161 18.7543 7.09331 19.1049 7.49244C18.8305 7.49535 18.6931 7.87042 18.2855 7.87151ZM23.3411 8.48933C22.8723 8.42846 22.3369 8.18425 21.909 8.18425C22.2206 7.59887 22.833 7.58064 23.4038 7.70093C23.9396 7.81356 24.096 8.00637 25.0611 8.03298C24.6751 8.48058 23.7205 8.53854 23.3411 8.48933ZM15.4199 6.96501C15.242 6.88701 14.5677 6.77037 14.1223 6.72809C13.9302 6.81593 13.9302 6.81593 13.8285 6.80208C13.8296 6.68727 13.8526 6.57828 13.8664 6.46347C13.7585 6.40551 13.6426 6.39567 13.5333 6.45253C13.3674 6.53892 13.1764 6.5535 13.0164 6.38328C13.093 6.37125 13.1695 6.37599 13.2588 6.36396C13.2592 6.31293 13.2595 6.27466 13.2599 6.23639C13.4159 6.25024 13.628 6.23311 13.7931 6.1737C13.9455 6.11939 14.0957 6.15255 14.2954 6.16458C14.3742 6.28414 14.5046 6.33261 14.626 6.33735C14.844 6.66102 15.4316 6.70877 15.8595 6.76782C15.8591 6.80609 15.8533 6.883 15.8525 6.93403C15.725 6.94569 15.5475 6.94059 15.4199 6.96501ZM23.679 34.9035L21.4818 37.3285L24.7604 49.4068L27.255 44.3942L23.679 34.9035ZM23.4829 34.4235L21.2631 36.8026C21.1268 36.0532 20.7652 35.4681 19.9852 35.2596C19.242 35.061 18.3442 35.3683 17.9706 36.2901L13.9535 48.3461L13.1633 49.273L17.7993 36.1876C18.0005 35.6387 18.5006 35.3136 18.9529 34.9323L21.2015 33.0366C21.6323 32.7311 22.088 32.722 22.455 32.8496C22.8191 32.9761 23.1151 33.0869 23.4829 34.4235ZM21.1822 37.5013L21.1931 37.51L23.7285 49.0886L23.3706 50.0086L21.1035 37.6423C21.1067 37.6376 21.1097 37.6325 21.1126 37.6274L21.1129 37.627C21.114 37.6249 21.1155 37.6227 21.1166 37.6205C21.1173 37.6201 21.1177 37.619 21.118 37.6183C21.1224 37.6114 21.1268 37.6041 21.1308 37.5968C21.1315 37.5961 21.1319 37.5953 21.1323 37.5946C21.1326 37.5939 21.133 37.5931 21.1333 37.5924C21.1341 37.5917 21.1341 37.591 21.1344 37.5902C21.1352 37.5895 21.1355 37.5888 21.1359 37.588C21.1363 37.5873 21.1366 37.5866 21.137 37.5858C21.1377 37.5851 21.1381 37.5844 21.1384 37.5837C21.1388 37.5829 21.1392 37.5822 21.1395 37.5815C21.1399 37.5811 21.1406 37.58 21.141 37.5793C21.1414 37.5786 21.1417 37.5778 21.1421 37.5771C21.1446 37.5727 21.1472 37.5684 21.1497 37.564C21.1501 37.5633 21.1505 37.5625 21.1508 37.5618C21.1512 37.5611 21.1516 37.56 21.1519 37.5596C21.1527 37.5581 21.1534 37.5563 21.1545 37.5552C21.1549 37.5545 21.1552 37.5538 21.1556 37.5527C21.1559 37.552 21.1563 37.5512 21.1567 37.5505C21.1574 37.549 21.1585 37.5476 21.1592 37.5465C21.1596 37.5454 21.16 37.5447 21.1603 37.5439C21.1607 37.5432 21.161 37.5425 21.1618 37.5417C21.1618 37.541 21.1621 37.5403 21.1629 37.5396C21.1654 37.5352 21.1676 37.5304 21.1694 37.5261C21.1702 37.5253 21.1705 37.5246 21.1709 37.5239C21.1713 37.5232 21.1716 37.5224 21.1723 37.5217C21.1727 37.521 21.1727 37.5202 21.1731 37.5195C21.1734 37.5188 21.1742 37.5177 21.1742 37.5173C21.1745 37.5166 21.1749 37.5155 21.1753 37.5151C21.176 37.5137 21.1767 37.5122 21.1774 37.5115C21.1774 37.5108 21.1774 37.5108 21.1778 37.5104C21.1782 37.5097 21.1785 37.5089 21.1789 37.5082V37.5078C21.1804 37.5057 21.1811 37.5035 21.1822 37.5013ZM20.8374 37.9664L22.5388 49.4286L22.1189 50.3217L20.7266 38.0633C20.7648 38.0324 20.8017 37.9999 20.8374 37.9664ZM20.268 38.3316L21.1993 49.6568L20.7222 50.5203L20.1412 38.3779C20.1842 38.3637 20.2265 38.3484 20.268 38.3316ZM19.8336 38.4501L19.9404 49.76L19.4016 50.587L19.7023 38.465C19.7464 38.4614 19.7902 38.4563 19.8336 38.4501ZM19.3123 38.4574L18.576 49.7403L18.037 50.5673L19.1742 38.4355C19.2197 38.4446 19.2657 38.4519 19.3123 38.4574ZM18.8491 38.3418L17.4239 49.5566L16.8338 50.3479L18.7175 38.2846C18.7601 38.305 18.8042 38.3243 18.8491 38.3418ZM18.3635 38.0619L16.1923 49.2883L15.6025 50.08L18.2447 37.9573C18.2826 37.9937 18.322 38.0287 18.3635 38.0619ZM17.9885 37.6427L14.934 48.9286L14.3439 49.7195L17.8966 37.4747C17.924 37.5326 17.9542 37.5888 17.9885 37.6427ZM18.2961 7.02297C18.478 7.02297 18.6264 7.17132 18.6264 7.3532C18.6264 7.53508 18.478 7.68307 18.2961 7.68307C18.1142 7.68307 17.9663 7.53508 17.9663 7.3532C17.9663 7.17132 18.1142 7.02297 18.2961 7.02297ZM25.4993 4.74451C25.5452 4.11904 26.2385 3.42832 26.8905 3.01061C27.4533 2.65085 27.7438 2.55572 28.1819 2.47991C28.4808 2.42851 28.4152 2.5991 28.3718 2.70225C27.3174 3.13855 26.4342 4.08842 26.0099 5.54421C25.9716 5.54385 25.5248 4.74451 25.4993 4.74451ZM30.3215 6.84619C29.9924 6.92747 29.7536 6.263 30.1232 6.14636C31.278 5.78259 32.0944 4.86807 32.647 3.70862C32.7006 3.51689 32.8041 3.50815 32.8963 3.71372C32.9962 4.30019 32.6317 5.01023 32.1291 5.56863C31.532 6.23201 30.9506 6.69055 30.3215 6.84619ZM31.1482 10.9912C30.7888 10.7222 30.4673 10.5374 30.1342 10.2039C29.6304 9.70018 29.1679 8.97958 28.7903 7.91306C29.1329 8.06907 29.5149 8.23856 29.8706 8.39456C30.0004 9.37141 30.6248 10.0526 31.4004 10.7809C31.4773 10.903 31.376 11.0984 31.1482 10.9912Z" fill="#9D2926"/>
</svg>
