<?xml version="1.0" encoding="UTF-8" standalone="no"?><!DOCTYPE svg PUBLIC "-//W3C//DTD SVG 1.1//EN" "http://www.w3.org/Graphics/SVG/1.1/DTD/svg11.dtd"><svg width="268" height="48" viewBox="0 0 268 48" fill="none" xmlns="http://www.w3.org/2000/svg">
<path fill-rule="evenodd" clip-rule="evenodd" d="M177.937 38.3428L178.231 19.3536C176.667 19.5504 176.083 17.1111 177.983 16.7791C178.065 15.3389 177.961 13.7314 178.634 12.4116C179.178 11.3454 180.1 10.6402 181.331 9.87928C181.531 9.94741 181.741 9.99756 181.916 10.1103L187.555 13.739C188.064 14.0662 187.256 14.4826 186.716 15.6021L186.627 17.1727L207.057 17.1841L207.097 19.2118L186.608 19.2398L186.384 23.166C182.812 25.4282 183.8 25.808 186.557 24.1624C190.577 21.7628 191.872 25.6264 194.19 29.6175C190.587 32.2979 194.846 30.0464 195.968 29.5221L198.681 35.4867C195.975 38.0111 191.675 40.3079 189.282 35.9474L186.711 31.2597L186.499 38.4365L177.937 38.3428ZM152.83 24.3806L161.378 22.9962L161.227 29.0932C157.566 30.9902 161.07 30.1789 162.994 29.1939L163.892 30.7222C164.284 28.479 164.202 26.4395 164.053 24.429L171.425 23.4043C172.838 23.2078 172.751 24.4342 172.615 25.4123L172.642 29.2509C170.185 30.4507 171.054 30.5143 172.364 30.1208C174.366 29.5197 175.356 28.4212 175.309 30.1522C175.251 32.2018 175.266 34.2402 175.293 36.2953C170.369 38.1906 166.907 40.1443 164.468 36.1711C162.094 37.152 152.6 41.0677 152.686 34.8168L152.83 24.3806ZM125.77 30.0025C126.23 30.0288 126.583 30.4248 126.557 30.8844C126.531 31.344 126.135 31.6972 125.675 31.6712C125.216 31.6449 124.863 31.2489 124.889 30.7893C124.915 30.3297 125.311 29.9765 125.77 30.0025ZM126.298 23.3361C130.515 23.5765 133.758 27.2114 133.518 31.4284C133.278 35.6454 129.643 38.8889 125.426 38.6488C121.209 38.4085 117.965 34.7735 118.206 30.5565C118.446 26.3395 122.081 23.0961 126.298 23.3361ZM100.103 10.3586L108.474 10.3434L108.563 24.3318L105.981 26.4499L107.195 27.6022L106.945 26.8002L112.498 22.6849L116.52 28.1335L112.639 31.1884C111.36 32.1955 112.631 32.3494 113.887 31.1345L116.818 33.2712L112.677 38.5499C111.542 37.9004 109.375 35.8512 108.658 36.1134C108.383 36.2137 108.467 38.1207 108.445 38.506L99.9866 38.3192L100.103 10.3586ZM145.621 20.5523L139.136 16.8351C141.247 15.1387 142.454 13.6861 142.346 10.617C141.111 13.9752 140.504 14.7503 137.566 16.7455L144.137 20.6648L144.009 26.3693L138.463 30.3864C142.634 31.775 143.416 33.8179 140.884 38.0087C144.693 35.0848 143.845 32.1457 140.454 30.0073L147.049 24.8683C152.747 29.2122 151.222 37.6939 143.335 38.4213C140.148 38.7156 135.505 38.5319 135.672 35.2467L135.653 15.7502C137.159 9.35081 142.476 8.95273 145.5 11.3166C148.255 13.4686 148.987 18.0055 145.621 20.5523ZM92.8638 20.717L86.379 16.9994C88.4901 15.303 89.6975 13.8504 89.5892 10.7813C88.3538 14.1395 87.7469 14.9149 84.8085 16.9098L91.3801 20.8294L91.2521 26.5336L85.7056 30.5507C89.8763 31.9393 90.6593 33.9819 88.1273 38.173C91.9359 35.2491 91.0882 32.31 87.6967 30.1716L94.2922 25.0329C99.9898 29.3765 98.4649 37.8582 90.5784 38.5859C87.3906 38.8799 82.7475 38.6962 82.9153 35.411L82.8956 15.9144C84.4018 9.51509 89.7186 9.11701 92.7438 11.4809C95.4978 13.6332 96.2296 18.1698 92.8638 20.717ZM52.6537 10.2168L58.5166 9.39992C60.847 9.07551 61.2599 9.62369 61.2326 11.8296L61.0265 28.6592L56.3996 30.3649L56.6494 31.167L64.6922 28.2767L64.7002 10.847C67.3532 10.0854 69.5169 9.53896 71.9583 9.63476C73.5686 9.69805 75.1159 9.28268 75.1052 11.4394L75.0211 28.4714L70.7924 30.1014C69.4771 30.8737 70.8733 31.0068 71.74 30.7461L76.7767 28.7681L79.6722 36.7127C74.9509 38.45 69.8389 39.8521 66.2779 36.7376C62.2228 38.266 50.8891 41.719 50.5519 32.789L50.5405 12.2069C51.2326 10.7937 51.1032 10.4323 52.6537 10.2168Z" fill="white"/>
<path fill-rule="evenodd" clip-rule="evenodd" d="M213.532 38.3861C213.634 37.2174 213.687 36.5728 213.694 36.4573C213.736 35.8378 213.757 35.3267 213.757 34.922C213.757 34.7636 213.764 34.6543 213.778 34.6014L214.056 29.0923L211.452 30.7012L211.705 25.9281L214.303 24.4001H219.604L219.583 24.7518L219.246 29.7435L219.059 33.5068L218.967 35.4041L218.883 38.3861H213.532ZM227.926 38.3861H221.09L226.751 28.0509L225.557 28.0191L223.617 27.9904L222.812 28.0191L221.192 28.146L221.379 24.4001H233.292L233.147 28.3497L227.926 38.3861ZM237.135 31.0955C236.421 30.6804 235.914 30.2402 235.611 29.7688C235.308 29.297 235.157 28.7298 235.157 28.0609C235.157 26.8501 235.688 25.8852 236.752 25.1675C237.811 24.4492 239.271 24.0898 241.127 24.0898C243.109 24.0898 244.598 24.4032 245.595 25.0302C246.59 25.6531 247.091 26.5862 247.091 27.8251C247.091 28.614 246.911 29.2794 246.552 29.8141C246.196 30.3526 245.64 30.7787 244.894 31.0917C245.718 31.4085 246.334 31.8276 246.739 32.3416C247.143 32.859 247.348 33.4753 247.348 34.1968C247.348 35.6611 246.767 36.7772 245.609 37.5415C244.45 38.3052 242.754 38.6853 240.518 38.6853C238.504 38.6853 236.959 38.3328 235.886 37.6328C234.808 36.9321 234.269 35.9146 234.269 34.5806C234.269 33.8028 234.506 33.1232 234.981 32.5391C235.456 31.9546 236.174 31.4718 237.135 31.0955ZM241.148 29.4125C241.465 29.4125 241.729 29.3282 241.94 29.159C242.148 28.9903 242.254 28.7789 242.254 28.5254C242.254 28.2792 242.151 28.0713 241.951 27.906C241.747 27.7403 241.479 27.6598 241.148 27.6598C240.842 27.6598 240.578 27.7476 240.36 27.924C240.145 28.1 240.036 28.3145 240.036 28.568C240.036 28.8215 240.134 29.0293 240.335 29.1874C240.55 29.3389 240.821 29.4125 241.148 29.4125ZM240.758 35.1157C241.127 35.1157 241.433 35.0029 241.673 34.7812C241.916 34.5561 242.036 34.2815 242.036 33.9505C242.036 33.6617 241.927 33.4296 241.705 33.2498C241.486 33.0703 241.184 32.9821 240.797 32.9821C240.405 32.9821 240.096 33.0745 239.87 33.2605C239.642 33.4473 239.529 33.697 239.529 34.0138C239.529 34.3098 239.634 34.5526 239.849 34.746C240.06 34.9362 240.363 35.0593 240.758 35.1157ZM256.785 38.3861H250.414C252.138 36.5908 253.532 34.8304 254.599 33.1052C255.666 31.377 256.198 30.0887 256.198 29.2365C256.198 28.8779 256.091 28.5887 255.884 28.3639C255.673 28.1419 255.401 28.0295 255.074 28.0295C254.772 28.0295 254.504 28.1318 254.278 28.339C254.064 28.5507 253.959 28.8042 253.959 29.0923C253.959 29.3883 254.06 29.6342 254.268 29.8352C254.476 30.0361 254.789 30.1769 255.208 30.2575L253.414 33.7568L253.166 33.7848H252.797C251.448 33.7848 250.396 33.4435 249.639 32.7604C248.882 32.0739 248.505 31.1204 248.505 29.8985C248.505 28.089 249.093 26.6741 250.273 25.6493C251.452 24.6249 253.103 24.1113 255.23 24.1113C257.12 24.1113 258.598 24.544 259.664 25.41C260.732 26.276 261.263 27.4837 261.263 29.0325C261.263 30.318 260.879 31.7644 260.112 33.3698C259.345 34.9753 258.24 36.6464 256.785 38.3861ZM262.808 38.3861L263.066 33.7848H267.667L267.416 38.3861H262.808Z" fill="white"/>
<path fill-rule="evenodd" clip-rule="evenodd" d="M34.3775 44.0389C34.5532 43.3631 35.0035 42.5998 35.3241 42.0589C35.9173 41.0577 36.3143 40.4894 36.3299 39.0562C36.3513 37.0755 35.6275 35.5181 35.1727 34.7199C34.7179 33.9216 34.1503 33.4952 33.745 33.2268C31.9742 32.6638 30.6454 32.3515 29.0427 31.7085C28.5073 31.4688 28.0851 31.1361 27.5846 30.6506C27.1599 30.5022 26.9085 30.3618 26.4464 30.1138C25.9522 29.8506 25.2961 29.1803 25.0049 28.8054C24.4425 28.1476 23.8262 28.0819 23.1092 28.0774C20.7976 28.0632 20.349 28.0691 19.255 28.0079C17.5054 27.9093 16.7822 27.7471 15.526 27.3601C14.9052 27.1688 14.2478 26.9876 13.61 26.7248C13.0055 26.2751 12.064 25.8207 11.3675 25.1656C10.9826 24.9325 10.6215 24.8447 10.3559 24.8302C10.3489 23.9427 10.5464 23.8217 11.3194 24.0115C11.3443 23.9392 11.3367 23.7373 11.3613 23.6771C11.0624 23.5668 10.5942 23.3938 10.3348 23.2168C10.1591 23.8611 9.53031 24.9734 8.83583 25.0318C8.28316 24.614 7.85119 24.2747 7.28779 23.9168C6.57498 23.4644 5.21992 22.6924 4.64477 22.018C4.50331 21.8524 3.80158 21.188 3.55879 20.9559C3.1614 20.5758 2.66233 20.1968 2.23935 20.193C2.09271 20.3731 2.03253 20.324 2.03011 20.6145C2.34899 21.3256 2.62187 21.9786 3.00611 22.6336C3.32499 23.1763 3.6871 23.7487 4.27436 24.1011C4.39714 24.2329 4.58459 24.4629 4.70564 24.679C4.81493 24.8731 4.74714 24.9844 4.57214 25.0494C4.467 25.0885 4.42066 25.066 4.21626 25.0944C3.75523 25.5558 4.13048 25.9583 4.7129 26.1427C5.04077 26.2468 5.26904 26.2841 5.62319 26.3599C5.83589 26.4055 6.12572 26.4844 6.41969 26.546C6.80463 27.0938 7.12455 28.1064 7.26531 28.9296C7.03705 28.7705 6.76866 28.5913 6.5404 28.4322C5.98253 28.1832 5.47793 27.8225 5.29394 27.5946C4.909 27.3732 4.47634 27.1049 4.0914 26.896C3.14203 26.6535 2.98501 25.5399 2.74326 24.8184C2.02319 23.2233 1.43835 22.0654 0.848324 20.7823C0.435374 19.8838 0.262447 19.6749 0.00478495 18.7507C-0.0391386 18.5923 0.226478 18.3336 0.508349 18.1666C0.690614 18.0587 0.724508 17.8283 0.952772 17.9276C1.12189 17.9774 1.84957 18.2081 2.3732 18.5007C4.21695 19.1052 5.8314 20.121 7.77406 20.6816C7.708 19.8509 7.46106 19.5507 6.55873 19.6327C6.25092 19.6603 6.24677 19.2384 6.47711 18.9894C7.01076 18.4118 7.4538 18.2887 8.07461 17.9584C8.46784 17.7498 8.28454 17.24 8.03068 17.2176C7.30128 17.1536 6.69811 17.7747 6.50823 17.5409C6.23224 17.0395 6.94781 16.2737 7.55375 15.8767C8.15934 15.4796 8.92956 15.5052 8.7549 14.9225C8.69473 14.7226 8.25099 14.679 7.86779 14.7212C7.53888 14.7568 7.22069 14.8855 7.05226 14.8135C6.38684 14.531 7.73913 13.5017 8.49759 13.1825C9.17546 12.8975 9.90037 12.9687 10.4371 12.6696C10.572 12.5945 10.6402 12.3161 10.5316 12.1999C10.111 11.8821 9.30135 12.4475 9.11909 12.2912C8.74314 11.9689 9.33974 11.566 9.6479 11.3418C10.812 10.4952 11.6144 10.2202 13.0155 9.73569C13.5906 9.53683 13.9368 9.49463 14.5445 9.4144C16.2555 9.18821 18.6294 8.98346 19.1008 7.33754C19.3927 6.31761 18.71 5.38899 17.4902 5.43949C16.9316 5.46266 16.6753 5.64251 16.5861 5.75802C16.5553 5.83618 16.639 5.86143 16.8818 5.76252C17.2923 5.59512 17.8896 5.56953 18.3167 5.82512C18.7435 6.0807 18.9638 6.63096 18.7439 7.30849C18.646 7.60973 18.2773 8.00365 17.9923 8.20079C17.2539 8.71266 16.3973 8.93677 15.5952 8.83025C14.9585 8.70851 14.3031 8.49339 14.0022 8.07248C13.5661 7.62287 13.0912 7.66437 12.6772 7.16012C12.2553 7.02316 12.0222 7.06777 11.7133 6.86406C11.3274 6.60882 11.2413 5.85763 11.2973 5.2555C11.9063 5.21365 12.3307 5.18148 12.9982 5.27486C13.5924 5.12061 14.5148 5.45125 15.1373 5.35614C15.4354 5.07046 15.7616 5.02135 16.1126 4.99749C16.5636 4.96705 17.045 4.97259 17.448 4.70074C17.4805 4.06714 16.8946 3.61269 16.7632 2.89642C16.6663 2.36934 16.6217 0.984537 17.6496 0.324993C17.7627 0.248905 17.9062 0.333293 17.7354 0.532506C17.1495 1.36498 17.1823 2.3102 17.9512 3.55182C18.1314 3.84268 18.3593 4.13977 18.5869 4.40781C18.7186 4.53785 19.032 4.48943 18.9625 4.22139C18.6761 3.61511 18.5315 3.27824 18.4904 2.82275C18.4582 2.4686 18.4945 1.97783 18.5879 1.62402C18.7556 0.989379 19.4843 -0.221457 19.8717 0.0351668C19.9616 0.0946538 19.7818 0.241642 19.6549 0.501033C19.4107 0.999063 19.2838 1.55485 19.3339 2.18258C19.3889 2.86737 19.7382 3.67771 20.2847 4.22001C20.8664 4.79758 21.5377 5.02827 21.9669 4.9335C22.3964 4.83909 22.7703 4.56206 22.9429 3.46674C23.1207 2.33787 23.9552 1.05751 25.4607 0.497574C25.727 0.390014 26.075 0.488928 25.8775 0.651134C25.3839 0.905683 25.0114 1.16542 24.6691 1.65688C23.7532 2.97251 23.2728 5.51489 25.3397 5.81578C26.0881 5.92507 26.6418 5.71687 27.2509 5.22264C27.7427 4.82387 28.2175 4.3708 28.6592 3.68428C28.9615 3.21426 29.2623 2.65363 29.4868 1.85056C29.5162 1.75406 29.593 1.76063 29.6559 1.85194C29.9575 2.44543 29.6857 3.25507 29.2437 4.01319C28.8286 4.7253 28.3209 5.29319 28.1127 5.67363C28.0169 5.84933 27.9526 6.04128 27.9785 6.22008C28.0117 6.45008 28.176 6.65897 28.4275 6.78625C29.2859 7.2196 30.118 7.38527 30.9408 7.38803C32.143 7.39253 33.2639 7.01762 34.4713 6.17996C34.8496 5.91781 35.2934 5.5391 35.6517 5.16004C36.1296 4.6544 36.4824 4.16813 36.5827 4.15879C36.6643 4.15153 36.675 4.20859 36.6719 4.25874C36.6166 5.12407 35.5237 6.15783 34.7313 6.7731C34.428 6.99584 33.8217 7.45132 33.7322 7.75222C33.5499 8.36127 33.8899 8.92363 34.418 9.21345C34.6667 9.35007 34.9178 9.34695 35.2425 9.39606C35.4061 9.44033 35.402 9.52611 35.255 9.57764C33.6045 9.91658 33.4589 8.74759 32.4408 8.31769C31.1621 7.77816 29.7649 8.12297 28.5876 7.64466C27.7485 7.30364 27.273 6.8817 26.4952 6.77968C26.0162 6.71638 25.3476 6.7942 24.6922 6.64618C24.2153 6.5649 24.0766 6.43832 23.5457 6.26747C22.5856 5.95862 21.5923 5.81716 20.7695 6.19795C20.7429 6.59672 21.3817 6.29583 21.896 6.41238C23.2804 6.72538 22.9958 7.25695 24.4861 7.49179C24.2499 8.03547 23.3216 8.46018 22.9854 8.52624C22.3518 8.65006 21.5491 8.70574 20.9311 8.44047C20.9587 9.29957 20.9646 10.2859 20.7765 11.0264C20.4379 12.414 20.3815 12.6146 20.3051 12.8857C20.0723 12.9974 19.3889 14.4812 19.2281 14.9273C19.1606 15.1552 19.1952 15.0944 19.1323 15.3959C18.8317 15.2804 18.776 15.1597 18.6318 15.0615C18.2579 16.1935 18.6484 17.3881 18.9995 17.745C20.4216 18.5176 22.0039 19.9145 23.9659 20.4897C25.21 20.7595 26.9707 20.6208 28.3358 20.6661C30.2231 20.7826 31.2275 21.3298 32.8634 22.2996C34.8012 23.0476 35.8568 23.6384 37.5684 23.316C37.5131 24.0371 35.9429 23.9942 36.0072 24.2381C36.1085 24.3003 36.296 24.2121 36.2327 24.3864C35.5282 24.6676 34.5477 24.301 34.161 23.9354C33.7657 23.5619 33.5665 23.3177 33.2283 23.2787C33.3628 24.585 33.2867 25.2666 33.0318 26.3775C32.8063 27.2947 32.6064 27.7803 32.7375 28.7874C32.8693 29.797 33.1643 30.6267 33.9864 31.2911C34.4799 31.6898 35.1118 31.9292 35.8111 32.1408C36.5357 32.256 36.9227 32.1685 36.8404 33.1625C36.7885 33.7888 37.0503 36.0168 37.1879 36.4492C37.2388 36.6093 37.3861 37.2982 37.7161 38.2805C38.0585 38.9096 38.7059 39.9637 38.359 40.5254C38.1615 40.8446 37.8575 40.3722 37.585 40.3853C36.6412 40.727 36.6578 41.3769 36.6235 42.0606C36.5952 42.6272 36.6114 42.9858 36.4917 43.2051C35.7156 43.6498 34.9344 43.8895 34.3775 44.0389ZM10.0214 19.6662C10.3763 19.1198 11.2371 19.1163 11.9413 19.0101C12.6164 18.9081 13.1479 18.6753 13.6487 18.4495C13.297 18.961 12.8408 19.2751 11.9188 19.3792C11.1057 19.4712 10.8805 19.3754 10.0214 19.6662ZM9.61435 18.325C10.0072 17.8864 10.3489 17.6322 11.1925 17.4877C11.9191 17.3628 11.9254 17.6167 13.4405 17.063C13.1369 17.588 12.2868 17.8636 11.4813 17.9255C10.6256 17.9916 9.98476 18.1853 9.61435 18.325ZM10.1072 16.5304C10.3908 15.9846 11.1157 15.8044 12.0613 15.6204C12.7883 15.479 13.6536 15.2445 13.9901 14.9979C13.6505 15.4236 13.1497 15.8124 12.4113 15.9303C11.565 16.0655 10.9009 16.2229 10.1072 16.5304ZM14.4439 16.3294C14.8464 15.5613 15.3925 15.462 15.828 15.4091C16.2181 15.3617 16.8168 15.0293 17.117 14.6506C17.1242 15.0307 16.6656 15.7978 15.8051 15.9144C15.5375 15.9504 14.9374 15.9483 14.4439 16.3294ZM10.7733 14.9467C10.939 14.6036 11.6781 14.2567 12.376 14.063C13.103 13.861 13.8608 13.656 14.1419 13.5899C13.6747 14.0028 13.223 14.1972 12.4625 14.3688C11.8949 14.4967 11.5937 14.5784 10.7733 14.9467ZM15.1598 14.7063C15.3109 14.404 15.7827 14.053 16.3803 13.9254C16.6815 13.861 17.1232 13.767 17.3971 13.648C17.255 13.971 16.86 14.3522 16.2814 14.4134C15.6205 14.4832 15.5769 14.5866 15.1598 14.7063ZM11.8645 13.4301C12.1958 13.0683 12.818 12.7536 13.4246 12.6506C13.5377 12.6315 14.6286 12.4669 15.0723 12.1788C14.8672 12.7111 14.0551 12.9072 13.4398 12.9802C12.9218 13.0417 12.6143 13.1676 11.8645 13.4301ZM15.9808 13.2039C16.1213 13.0528 16.5923 12.7557 17.1481 12.7446C17.5749 12.542 17.6876 12.4894 18.1743 12.4078C17.9871 12.7349 17.4732 12.9833 17.2315 13.0977C16.9859 13.1607 16.3488 13.2734 15.9808 13.2039ZM12.6835 12.3241C12.9259 11.9557 13.4274 11.7544 13.9514 11.6386C14.4452 11.5293 14.9315 11.419 15.3666 11.1973C15.1228 11.6123 14.6538 11.8122 14.1271 11.8907C13.5965 11.9696 13.1009 12.1684 12.6835 12.3241ZM16.6162 12.1449C16.7635 11.826 17.4902 11.78 17.6032 11.7876C18.0767 11.5922 18.4008 11.4335 18.7249 11.5276C18.4866 11.7378 18.1459 11.871 17.6863 12.1217C17.5047 12.1563 17.4988 12.1283 16.6162 12.1449ZM17.0212 11.1454C17.6683 10.9272 18.269 10.812 18.9825 10.7418C18.8034 11.0738 17.8429 11.3353 17.0212 11.1454ZM23.2424 24.7672C22.7489 24.007 22.955 23.5277 22.9353 22.9235C22.9221 22.5109 22.7347 22.175 22.6645 21.9326C22.9733 22.0796 23.2718 22.5455 23.3143 23.1351C23.3472 23.5906 23.1705 23.9206 23.2424 24.7672ZM24.2499 25.1397C23.6699 24.6458 23.9175 23.9725 23.9417 23.3689C23.9583 22.9563 23.8259 22.5327 23.7356 22.2781C24.0555 22.4023 24.2751 22.9632 24.2744 23.5547C24.2741 24.0108 24.1638 24.365 24.2499 25.1397ZM25.1114 25.425C24.6742 25.0512 24.778 24.3619 24.8181 23.7591C24.8579 23.1666 24.6469 22.7052 24.4847 22.4507C24.805 22.5749 25.2418 23.0158 25.2411 23.6072C25.2404 24.0634 25.0256 24.6503 25.1114 25.425ZM17.3504 7.46896C17.0143 7.47 16.8922 7.29119 16.7984 6.97578C16.75 6.95122 16.648 6.92044 16.5999 6.89588C16.5882 6.83536 16.5764 6.78659 16.5771 6.73852C16.859 6.76757 17.0191 6.45111 17.3681 6.46668C17.7205 6.48224 17.7952 6.73056 18.1279 7.10927C17.8675 7.11204 17.7371 7.46793 17.3504 7.46896ZM22.1474 8.05519C21.7027 7.99743 21.1946 7.76571 20.7886 7.76571C21.0843 7.21026 21.6653 7.19297 22.2069 7.3071C22.7153 7.41397 22.8637 7.59693 23.7795 7.62218C23.4133 8.04689 22.5075 8.10188 22.1474 8.05519ZM14.6313 6.60882C14.4625 6.53481 13.8227 6.42414 13.4001 6.38402C13.2178 6.46737 13.2178 6.46737 13.1213 6.45423C13.1224 6.34528 13.1441 6.24187 13.1573 6.13293C13.0549 6.07794 12.9449 6.0686 12.8412 6.12255C12.6838 6.20452 12.5026 6.21835 12.3508 6.05684C12.4234 6.04543 12.496 6.04992 12.5807 6.03851C12.5811 5.99009 12.5814 5.95378 12.5818 5.91746C12.7298 5.9306 12.9311 5.91435 13.0878 5.85797C13.2323 5.80644 13.3748 5.83791 13.5644 5.84933C13.6391 5.96277 13.7629 6.00877 13.878 6.01326C14.0849 6.32038 14.6424 6.36569 15.0484 6.42172C15.0481 6.45803 15.0425 6.53101 15.0418 6.57943C14.9208 6.59049 14.7524 6.58565 14.6313 6.60882ZM22.468 33.1186L20.3832 35.4195L23.4942 46.8801L25.8612 42.1239L22.468 33.1186ZM22.282 32.6631L20.1757 34.9205C20.0464 34.2094 19.7033 33.6543 18.9631 33.4565C18.2579 33.268 17.4061 33.5595 17.0516 34.4342L13.2399 45.8737L12.4901 46.7532L16.8891 34.337C17.08 33.8162 17.5545 33.5077 17.9837 33.1459L20.1173 31.3471C20.5261 31.0573 20.9584 31.0486 21.3067 31.1697C21.6522 31.2897 21.933 31.3948 22.282 32.6631ZM20.0989 35.5835L20.1093 35.5918L22.5151 46.5782L22.1754 47.4511L20.0242 35.7173C20.0273 35.7128 20.0301 35.708 20.0329 35.7031L20.0332 35.7028C20.0343 35.7007 20.0356 35.6986 20.0367 35.6966C20.0374 35.6962 20.0377 35.6952 20.0381 35.6945C20.0422 35.6879 20.0464 35.681 20.0502 35.6741C20.0509 35.6734 20.0512 35.6727 20.0515 35.672C20.0519 35.6713 20.0522 35.6706 20.0526 35.6699C20.0533 35.6693 20.0533 35.6686 20.0536 35.6679C20.0543 35.6672 20.0547 35.6665 20.055 35.6658C20.0554 35.6651 20.0557 35.6644 20.056 35.6637C20.0567 35.663 20.0571 35.6623 20.0574 35.6616C20.0578 35.6609 20.0581 35.6603 20.0585 35.6596C20.0588 35.6592 20.0595 35.6582 20.0599 35.6575C20.0602 35.6568 20.0605 35.6561 20.0609 35.6554C20.0633 35.6513 20.0657 35.6471 20.0681 35.643C20.0685 35.6423 20.0688 35.6416 20.0692 35.6409C20.0695 35.6402 20.0699 35.6392 20.0702 35.6388C20.0709 35.6374 20.0716 35.6357 20.0726 35.6347C20.073 35.634 20.0733 35.6333 20.0737 35.6322C20.074 35.6316 20.0744 35.6309 20.0747 35.6302C20.0754 35.6288 20.0765 35.6274 20.0771 35.6264C20.0775 35.6253 20.0778 35.6246 20.0782 35.6239C20.0785 35.6233 20.0789 35.6226 20.0796 35.6219C20.0796 35.6212 20.0799 35.6205 20.0806 35.6198C20.083 35.6156 20.0851 35.6111 20.0868 35.607C20.0875 35.6063 20.0879 35.6056 20.0882 35.6049C20.0886 35.6042 20.0889 35.6035 20.0896 35.6028C20.0899 35.6022 20.0899 35.6015 20.0903 35.6008C20.0906 35.6001 20.0913 35.599 20.0913 35.5987C20.0917 35.598 20.092 35.597 20.0924 35.5966C20.0931 35.5952 20.0937 35.5939 20.0944 35.5932C20.0944 35.5925 20.0944 35.5925 20.0948 35.5921C20.0951 35.5914 20.0955 35.5907 20.0958 35.59V35.5897C20.0972 35.5876 20.0979 35.5856 20.0989 35.5835ZM19.7718 36.0248L21.3862 46.9009L20.9878 47.7482L19.6666 36.1168C19.7029 36.0874 19.7379 36.0566 19.7718 36.0248ZM19.2315 36.3713L20.1152 47.1174L19.6625 47.9367L19.1112 36.4153C19.152 36.4018 19.1921 36.3872 19.2315 36.3713ZM18.8193 36.4837L18.9206 47.2153L18.4094 48L18.6948 36.4979C18.7366 36.4945 18.7781 36.4896 18.8193 36.4837ZM18.3247 36.4907L17.6261 47.1966L17.1146 47.9813L18.1936 36.4699C18.2369 36.4785 18.2804 36.4855 18.3247 36.4907ZM17.8851 36.381L16.5328 47.0223L15.9729 47.7731L17.7603 36.3267C17.8007 36.3461 17.8426 36.3644 17.8851 36.381ZM17.4244 36.1154L15.3642 46.7677L14.8046 47.5189L17.3117 36.0161C17.3477 36.0507 17.385 36.0839 17.4244 36.1154ZM17.0686 35.7177L14.1703 46.4264L13.6104 47.1769L16.9814 35.5582C17.0073 35.6132 17.036 35.6665 17.0686 35.7177ZM17.3605 6.66382C17.533 6.66382 17.6738 6.80458 17.6738 6.97716C17.6738 7.14974 17.533 7.29016 17.3605 7.29016C17.1879 7.29016 17.0475 7.14974 17.0475 6.97716C17.0475 6.80458 17.1879 6.66382 17.3605 6.66382ZM24.1952 4.50188C24.2388 3.90839 24.8966 3.253 25.5154 2.85665C26.0494 2.51529 26.325 2.42502 26.7407 2.35308C27.0243 2.30432 26.9621 2.46618 26.9209 2.56405C25.9204 2.97804 25.0823 3.87934 24.6798 5.26068C24.6435 5.26034 24.2194 4.50188 24.1952 4.50188ZM28.7709 6.49608C28.4586 6.5732 28.232 5.94271 28.5827 5.83203C29.6784 5.48687 30.4531 4.61912 30.9774 3.51896C31.0283 3.33704 31.1265 3.32874 31.214 3.5238C31.3088 4.08028 30.9629 4.75401 30.486 5.28385C29.9195 5.91331 29.3678 6.3484 28.7709 6.49608ZM29.5553 10.4291C29.2143 10.1739 28.9092 9.99854 28.5931 9.68209C28.1151 9.20412 27.6763 8.52036 27.318 7.50839C27.6431 7.65642 28.0055 7.81724 28.3431 7.96526C28.4662 8.89215 29.0586 9.53856 29.7946 10.2296C29.8676 10.3454 29.7714 10.5308 29.5553 10.4291Z" fill="white"/>
</svg>
