<svg width="18" height="21" viewBox="0 0 18 21" fill="none" xmlns="http://www.w3.org/2000/svg">
<path d="M2 20.6673H16C16.5304 20.6673 17.0391 20.4565 17.4142 20.0815C17.7893 19.7064 18 19.1977 18 18.6673V7.66726C18 7.40205 17.8946 7.14769 17.7071 6.96016C17.5196 6.77262 17.2652 6.66726 17 6.66726H14V5.89026C14 3.28126 12.097 0.945264 9.5 0.692264C8.80487 0.623176 8.10298 0.700364 7.43949 0.918864C6.77599 1.13736 6.16557 1.49233 5.64752 1.96094C5.12946 2.42954 4.71524 3.00141 4.43149 3.63973C4.14774 4.27806 4.00076 4.96871 4 5.66726V6.66726H1C0.734784 6.66726 0.48043 6.77262 0.292893 6.96016C0.105357 7.14769 0 7.40205 0 7.66726V18.6673C0 19.1977 0.210714 19.7064 0.585786 20.0815C0.960859 20.4565 1.46957 20.6673 2 20.6673ZM6 5.66726C6 4.01326 7.346 2.66726 9 2.66726C10.654 2.66726 12 4.01326 12 5.66726V6.66726H6V5.66726Z" fill="white"/>
</svg>
