<svg width="18" height="14" viewBox="0 0 18 14" fill="none" xmlns="http://www.w3.org/2000/svg">
<path d="M17.6475 3.58381V11.1562C17.6475 11.8607 17.3676 12.5364 16.8695 13.0345C16.3713 13.5326 15.6957 13.8125 14.9912 13.8125H3.30371C2.59923 13.8125 1.9236 13.5326 1.42546 13.0345C0.927315 12.5364 0.647461 11.8607 0.647461 11.1562V3.58381L8.87759 8.42669C8.95935 8.47491 9.05254 8.50034 9.14746 8.50034C9.24238 8.50034 9.33557 8.47491 9.41734 8.42669L17.6475 3.58381ZM14.9912 3.28872e-08C15.6448 -0.000102761 16.2755 0.240769 16.7626 0.676536C17.2497 1.1123 17.5591 1.71237 17.6315 2.36194L9.14746 7.3525L0.663399 2.36194C0.735817 1.71237 1.04518 1.1123 1.53231 0.676536C2.01943 0.240769 2.65012 -0.000102761 3.30371 3.28872e-08H14.9912Z" fill="#4F4F4F"/>
</svg>
