<svg width="20" height="20" viewBox="0 0 20 20" fill="none" xmlns="http://www.w3.org/2000/svg">
<path d="M10.0004 0C4.47793 0 0 4.47705 0 10C0 15.523 4.47749 20 10.0004 20C15.5238 20 20.0009 15.523 20.0009 10C20.0009 4.47705 15.5238 0 10.0004 0ZM10.0004 2.99012C11.8278 2.99012 13.3086 4.47134 13.3086 6.29783C13.3086 8.12475 11.8278 9.60554 10.0004 9.60554C8.17395 9.60554 6.69317 8.12475 6.69317 6.29783C6.69317 4.47134 8.17395 2.99012 10.0004 2.99012ZM9.99824 17.3855C8.17571 17.3855 6.50648 16.7217 5.21898 15.6231C4.90534 15.3556 4.72436 14.9633 4.72436 14.5517C4.72436 12.6993 6.22359 11.2168 8.07643 11.2168H11.9253C13.7786 11.2168 15.2721 12.6993 15.2721 14.5517C15.2721 14.9638 15.092 15.3552 14.7779 15.6227C13.4909 16.7217 11.8212 17.3855 9.99824 17.3855Z" fill="white"/>
</svg>
