<svg width="52" height="52" viewBox="0 0 52 52" fill="none" xmlns="http://www.w3.org/2000/svg">
<path fill-rule="evenodd" clip-rule="evenodd" d="M26.0003 51.2234C39.9349 51.2234 51.2311 39.9272 51.2311 25.9927C51.2311 12.0581 39.9349 0.761902 26.0003 0.761902C12.0657 0.761902 0.769531 12.0581 0.769531 25.9927C0.769531 39.9272 12.0657 51.2234 26.0003 51.2234ZM4.12043 25.9927C4.12043 13.9101 13.9174 4.11313 26 4.11313C38.0827 4.11313 47.8796 13.9101 47.8796 25.9927C47.8796 38.0754 38.0827 47.8723 26 47.8723C13.9174 47.8723 4.12043 38.0754 4.12043 25.9927ZM22.3713 34.0901L33.0377 26.3297C33.088 26.2941 33.1292 26.2469 33.1575 26.1921C33.1859 26.1372 33.2007 26.0764 33.2007 26.0147C33.2007 25.953 33.1859 25.8922 33.1575 25.8374C33.1292 25.7825 33.088 25.7353 33.0377 25.6997L22.3713 17.9442C22.313 17.9018 22.244 17.8764 22.172 17.8708C22.1001 17.8652 22.028 17.8797 21.9638 17.9125C21.8996 17.9454 21.8457 17.9954 21.8082 18.057C21.7706 18.1187 21.7509 18.1895 21.7511 18.2616V33.7727C21.7512 33.8447 21.7712 33.9153 21.8088 33.9767C21.8464 34.0381 21.9002 34.0879 21.9643 34.1207C22.0284 34.1535 22.1003 34.168 22.1721 34.1626C22.2439 34.1572 22.3129 34.1322 22.3713 34.0901Z" fill="white"/>
</svg>
