<?xml version="1.0" encoding="UTF-8" standalone="no"?><!DOCTYPE svg PUBLIC "-//W3C//DTD SVG 1.1//EN" "http://www.w3.org/Graphics/SVG/1.1/DTD/svg11.dtd"><svg width="72" height="69" viewBox="0 0 72 69" fill="none" xmlns="http://www.w3.org/2000/svg">
<path d="M68.9391 0H18.6468C16.9572 0.00196923 15.588 1.37115 15.5861 3.06075V16.9326L13.2863 13.4829C12.2336 11.895 10.1165 11.4186 8.48513 12.4027L3.75363 15.2474C2.20412 16.1566 1.06745 17.631 0.582456 19.3608C-1.14358 25.6456 0.137129 36.4735 16.0303 52.369C28.6692 64.9949 38.0927 68.3953 44.5875 68.3953C46.0912 68.4022 47.5891 68.2068 49.0407 67.8144C50.7698 67.3294 52.2442 66.1943 53.1553 64.6469L55.9963 59.9105C56.9764 58.2803 56.5004 56.1676 54.916 55.1152L43.5865 47.5629C42.0323 46.535 39.9491 46.873 38.7997 48.3395L35.5012 52.5801C35.1564 53.0339 34.5311 53.1661 34.032 52.891L33.4042 52.5452C31.3385 51.4194 28.7675 50.0174 23.5751 44.825C23.0133 44.2632 22.5044 43.7376 22.0267 43.2346H68.9391C70.6245 43.2358 71.9932 41.8735 71.9998 40.1881V3.06075C71.9979 1.37115 70.6287 0.00196923 68.9391 0ZM32.2556 54.6532L32.8654 54.9881C34.3981 55.8451 36.3276 55.4475 37.3965 54.0542L40.6949 49.8136C41.0699 49.3359 41.7485 49.2258 42.2553 49.5603L53.5848 57.1126C54.0995 57.4557 54.2542 58.1424 53.9365 58.6729L51.0954 63.4094C50.5021 64.4268 49.5382 65.1751 48.4056 65.4979C42.7318 67.0582 32.8018 65.738 17.7308 50.6659C2.65986 35.5938 1.34455 25.6648 2.90123 19.9958C3.22376 18.8633 3.97165 17.8995 4.98848 17.3059L9.72491 14.4636C10.2556 14.1466 10.9419 14.3011 11.2852 14.8153L18.8411 26.1448C19.1761 26.6515 19.066 27.3306 18.5877 27.7052L14.3459 31.0048C12.9529 32.0733 12.5551 34.0024 13.412 35.5347L13.7481 36.1445C14.9483 38.3458 16.4403 41.0849 21.8789 46.5222C27.3176 51.9597 30.0556 53.4528 32.2556 54.6532ZM69.5993 40.1883C69.5954 40.5494 69.3002 40.8391 68.9392 40.8364H19.8614C18.3025 39.0537 16.9582 37.0943 15.856 34.9982L15.5102 34.3681C15.2345 33.8701 15.3665 33.2453 15.82 32.9013L20.0618 29.6017C21.5289 28.4525 21.8669 26.369 20.8384 24.8149L17.9865 20.5346V3.06075C17.9846 2.88507 18.0535 2.716 18.1777 2.59179C18.3019 2.46759 18.471 2.39867 18.6467 2.40064H68.9391C69.1148 2.39867 69.2838 2.46759 69.408 2.59179C69.5322 2.716 69.6012 2.88507 69.5992 3.06075V40.1883H69.5993Z" fill="#D8B596"/>
<path d="M64.805 5.55744L44.7444 20.7712C44.1768 21.1836 43.4083 21.1836 42.8407 20.7712L22.7876 5.55744C22.2592 5.1567 21.506 5.26023 21.1054 5.78854C20.7047 6.31686 20.8082 7.07009 21.3365 7.47069L41.3922 22.6832C42.819 23.7373 44.7665 23.7373 46.1933 22.6832L66.255 7.47069C66.5089 7.27827 66.6759 6.99273 66.7191 6.67709C66.7623 6.36145 66.6783 6.04159 66.4854 5.78798C66.0848 5.26065 65.3329 5.15755 64.805 5.55744Z" fill="#D8B596"/>
<path d="M33.5498 22.784L21.2541 35.9513C20.802 36.4362 20.8286 37.1959 21.3134 37.648C21.7983 38.1 22.558 38.0735 23.01 37.5886L35.3059 24.4154C35.7122 23.9253 35.665 23.2033 35.1988 22.77C34.7323 22.3366 34.0088 22.3428 33.5498 22.784Z" fill="#D8B596"/>
<path d="M54.1156 22.784C53.6635 22.2992 52.9039 22.2725 52.4189 22.7247C51.9341 23.1768 51.9074 23.9363 52.3596 24.4213L64.6518 37.5886C65.1039 38.0735 65.8635 38.1002 66.3485 37.648C66.8333 37.1959 66.86 36.4363 66.4078 35.9513L54.1156 22.784Z" fill="#D8B596"/>
</svg>
