<?xml version="1.0" encoding="UTF-8" standalone="no"?><!DOCTYPE svg PUBLIC "-//W3C//DTD SVG 1.1//EN" "http://www.w3.org/Graphics/SVG/1.1/DTD/svg11.dtd"><svg width="65" height="76" viewBox="0 0 65 76" fill="none" xmlns="http://www.w3.org/2000/svg">
<path d="M55.8884 16.6704L56.0798 17.1827C56.2468 17.63 56.6711 17.9062 57.1221 17.9062C57.2515 17.9062 57.3831 17.8835 57.5114 17.8354C58.087 17.6203 58.3794 16.9793 58.1642 16.4038L57.9731 15.8923C57.7169 15.2054 57.1778 14.6621 56.4938 14.4021C55.92 14.1838 55.2769 14.4721 55.0584 15.0465C54.8398 15.6209 55.1284 16.2636 55.7028 16.4821C55.7881 16.5143 55.8556 16.5827 55.8884 16.6704Z" fill="#D8B596"/>
<path d="M55.4268 22.2118C55.7208 22.2118 56.0146 22.096 56.2333 21.8659C56.6179 21.4614 57.02 21.0796 57.4287 20.7306C57.896 20.3317 57.9514 19.6293 57.5524 19.1619C57.1535 18.6948 56.4513 18.6391 55.9837 19.0384C55.5169 19.437 55.0583 19.8724 54.6208 20.3323C54.1974 20.7775 54.2151 21.4819 54.6603 21.9053C54.8755 22.1102 55.1513 22.2118 55.4268 22.2118Z" fill="#D8B596"/>
<path d="M36.9038 63.9308C36.3646 64.2256 35.8303 64.5451 35.3158 64.8804C34.8009 65.216 34.6557 65.9053 34.9912 66.42C35.2046 66.7473 35.5609 66.9253 35.9244 66.9253C36.1327 66.9253 36.3433 66.8669 36.5309 66.7446C36.9976 66.4405 37.4823 66.1506 37.9714 65.8831C38.5106 65.5884 38.7087 64.9123 38.4139 64.373C38.119 63.8341 37.4426 63.6359 36.9038 63.9308Z" fill="#D8B596"/>
<path d="M52.9709 53.8064C52.6901 53.2596 52.0195 53.0442 51.4728 53.3247C50.9261 53.6054 50.7106 54.2761 50.9913 54.8228C51.2754 55.3761 51.5795 55.9184 51.8949 56.4344C52.1047 56.7775 52.4705 56.9666 52.8451 56.9666C53.043 56.9666 53.2434 56.9138 53.4246 56.803C53.9487 56.4824 54.1138 55.7975 53.7932 55.2732C53.5066 54.8044 53.2299 54.3108 52.9709 53.8064Z" fill="#D8B596"/>
<path d="M27.7122 64.1322C27.1782 63.8281 26.4989 64.0146 26.1947 64.5487C25.8908 65.0827 26.0771 65.7621 26.6112 66.066C27.0955 66.3418 27.5752 66.64 28.0368 66.9523C28.2279 67.0817 28.4447 67.1435 28.6592 67.1435C29.0161 67.1435 29.3668 66.972 29.5818 66.6541C29.9261 66.1451 29.7926 65.4535 29.2836 65.1092C28.7749 64.7648 28.246 64.4362 27.7122 64.1322Z" fill="#D8B596"/>
<path d="M35.4606 4.45062H33.6957C33.081 4.45062 32.583 4.9488 32.583 5.56328C32.583 6.17777 33.081 6.67594 33.6957 6.67594H35.4606C36.0753 6.67594 36.5733 6.17777 36.5733 5.56328C36.5733 4.9488 36.0751 4.45062 35.4606 4.45062Z" fill="#D8B596"/>
<path d="M32.3843 67.1314L32.3438 67.168C32.2668 67.2374 32.1837 67.252 32.1275 67.252C32.0744 67.252 32.022 67.2388 31.9759 67.2139C31.4356 66.921 30.7603 67.1219 30.4675 67.6623C30.1748 68.2026 30.3756 68.8779 30.916 69.1706C31.2865 69.3714 31.7053 69.4773 32.1275 69.4773C32.759 69.4773 33.3654 69.2438 33.8365 68.8185L33.8689 68.7892C34.3267 68.3793 34.3656 67.676 33.9557 67.2182C33.5458 66.7605 32.8425 66.7213 32.3843 67.1314Z" fill="#D8B596"/>
<path d="M28.3994 6.69403C28.4581 6.69403 28.5178 6.68943 28.5777 6.67964C28.5934 6.67711 28.6093 6.67593 28.6262 6.67593C28.6262 6.67593 28.6262 6.67593 28.6264 6.67593H30.1648C30.7793 6.67593 31.2775 6.17775 31.2775 5.56327C31.2775 4.94878 30.7793 4.45061 30.1648 4.45061H28.6276C28.4927 4.4466 28.357 4.46129 28.2239 4.4828C27.6173 4.58057 27.2045 5.15158 27.3025 5.75821C27.3904 6.30504 27.8628 6.69403 28.3994 6.69403Z" fill="#D8B596"/>
<path d="M37.6845 10.1162C37.9021 10.4168 38.242 10.5766 38.5866 10.5766C38.8127 10.5766 39.041 10.5079 39.2382 10.3652C39.7359 10.0048 39.8473 9.30918 39.4871 8.81145C39.1734 8.37796 38.885 7.91747 38.6304 7.44288C38.3398 6.90154 37.6647 6.69814 37.1238 6.98877C36.5825 7.2794 36.379 7.95381 36.6696 8.49531C36.971 9.05713 37.3125 9.60262 37.6845 10.1162Z" fill="#D8B596"/>
<path d="M26.9696 7.35084C26.4373 7.04419 25.7568 7.22726 25.4501 7.75985C25.182 8.22539 24.8801 8.67683 24.5527 9.10172C24.1775 9.58847 24.2682 10.2871 24.7548 10.6623C24.9571 10.8182 25.196 10.8937 25.4332 10.8937C25.7665 10.8937 26.0962 10.7446 26.3153 10.4602C26.7034 9.95669 27.0611 9.42172 27.3786 8.87029C27.6852 8.33784 27.502 7.65749 26.9696 7.35084Z" fill="#D8B596"/>
<path d="M50.7581 16.6155C51.2638 16.6453 51.7868 16.6605 52.3121 16.6605C52.4079 16.6605 52.5034 16.66 52.5993 16.659C53.2138 16.6528 53.7067 16.1494 53.7005 15.5351C53.6941 14.9204 53.1912 14.4219 52.5764 14.4338C52.0068 14.4395 51.4362 14.4264 50.8892 14.3941C50.2731 14.3579 49.7491 14.8258 49.7129 15.4392C49.6767 16.0527 50.1446 16.5793 50.7581 16.6155Z" fill="#D8B596"/>
<path d="M48.3074 33.4515C48.1933 34.0404 48.0929 34.6459 48.0087 35.2511C47.9243 35.8598 48.3491 36.4218 48.9578 36.5062C49.0097 36.5135 49.0612 36.5169 49.1122 36.5169C49.6587 36.5169 50.1354 36.1138 50.2128 35.5572C50.2915 34.9909 50.3854 34.4248 50.492 33.8746C50.6088 33.2714 50.2146 32.6876 49.6113 32.5705C49.0069 32.4538 48.4241 32.8482 48.3074 33.4515Z" fill="#D8B596"/>
<path d="M50.9483 63.3868C51.5018 63.454 52.0592 63.5438 52.6049 63.6537C52.679 63.6687 52.7529 63.6758 52.8256 63.6758C53.3446 63.6758 53.8089 63.3109 53.9153 62.7826C54.0365 62.1801 53.6465 61.5935 53.0441 61.4721C52.442 61.3509 51.8272 61.252 51.2167 61.1778C50.6056 61.1045 50.052 61.5382 49.9779 62.1482C49.9039 62.7581 50.3384 63.3126 50.9483 63.3868Z" fill="#D8B596"/>
<path d="M56.7198 62.2364C56.6584 62.3523 56.5244 62.422 56.3972 62.4015C55.7895 62.3052 55.2206 62.7206 55.125 63.3277C55.0295 63.9348 55.4441 64.5043 56.0512 64.5998C56.18 64.6202 56.3116 64.6304 56.4421 64.6304C57.3839 64.6304 58.2434 64.1128 58.6855 63.2795C58.9735 62.7366 58.767 62.0631 58.2243 61.7752C57.6809 61.4868 57.0078 61.6936 56.7198 62.2364Z" fill="#D8B596"/>
<path d="M55.7635 57.9649C55.3583 57.5029 54.6551 57.4571 54.1933 57.8624C53.7314 58.2677 53.6854 58.9706 54.0908 59.4326C54.5078 59.9079 54.9465 60.361 55.3945 60.7796C55.609 60.9799 55.8815 61.0792 56.1536 61.0792C56.4512 61.0792 56.7481 60.9605 56.9671 60.7259C57.3864 60.2769 57.3624 59.5728 56.9133 59.1532C56.5189 58.7847 56.1321 58.3849 55.7635 57.9649Z" fill="#D8B596"/>
<path d="M49.9295 31.3035C50.0409 31.3387 50.1538 31.3554 50.2648 31.3554C50.7373 31.3554 51.1758 31.0521 51.3255 30.5775C51.4968 30.0342 51.6852 29.4955 51.8851 28.9763C52.1058 28.4028 51.8201 27.7589 51.2464 27.5381C50.673 27.3169 50.029 27.6033 49.8084 28.1767C49.5921 28.7385 49.3886 29.3208 49.2033 29.9075C49.0183 30.4935 49.3435 31.1185 49.9295 31.3035Z" fill="#D8B596"/>
<path d="M49.54 51.446C49.702 51.9021 50.1307 52.1868 50.5886 52.1868C50.7121 52.1868 50.8378 52.166 50.9608 52.1224C51.5398 51.9168 51.8426 51.2808 51.6373 50.7016C51.4506 50.1758 51.276 49.6321 51.1186 49.0853C50.9485 48.4947 50.3316 48.1539 49.7415 48.3241C49.151 48.4942 48.8102 49.1108 48.9803 49.7012C49.1501 50.2912 49.3385 50.8781 49.54 51.446Z" fill="#D8B596"/>
<path d="M49.4534 47.0497C50.0591 46.9466 50.4666 46.372 50.3635 45.7662C50.2693 45.2125 50.188 44.6442 50.1223 44.0773C50.0513 43.467 49.4995 43.0295 48.8887 43.1005C48.2783 43.1714 47.8409 43.7238 47.9118 44.3341C47.9823 44.9398 48.0691 45.5472 48.1698 46.1394C48.2621 46.6821 48.7328 47.0656 49.2654 47.0656C49.3273 47.0656 49.3902 47.0606 49.4534 47.0497Z" fill="#D8B596"/>
<path d="M47.5827 13.9312C47.0378 13.8056 46.5029 13.6541 45.9927 13.4811C45.4113 13.2843 44.7792 13.5955 44.5817 14.1776C44.3844 14.7596 44.6961 15.3913 45.2781 15.5886C45.8584 15.7855 46.4656 15.9573 47.0828 16.0996C47.1668 16.119 47.2509 16.1282 47.3337 16.1282C47.8401 16.1282 48.2983 15.78 48.4169 15.2652C48.5552 14.6666 48.1815 14.0692 47.5827 13.9312Z" fill="#D8B596"/>
<path d="M48.8476 37.8078C48.2297 37.7827 47.718 38.2664 47.6964 38.8804C47.6811 39.3092 47.6737 39.7437 47.6738 40.1717C47.6738 40.3484 47.675 40.5246 47.6775 40.7006C47.6864 41.3096 48.1827 41.7972 48.7898 41.7972C48.7951 41.7972 48.8006 41.7972 48.8061 41.7971C49.4206 41.7882 49.9113 41.2829 49.9026 40.6685C49.9002 40.5034 49.8991 40.3379 49.8991 40.1714C49.899 39.7694 49.9061 39.3614 49.9204 38.959C49.942 38.3449 49.4618 37.8295 48.8476 37.8078Z" fill="#D8B596"/>
<path d="M45.7978 63.3704C45.8395 63.3704 45.8816 63.368 45.9241 63.3632C46.4779 63.3008 47.0409 63.2594 47.5972 63.2406C48.2114 63.2196 48.6924 62.7048 48.6715 62.0908C48.6504 61.4766 48.1386 60.9959 47.5216 61.0166C46.9074 61.0375 46.2859 61.083 45.6745 61.152C45.0639 61.2209 44.6248 61.7718 44.6936 62.3823C44.7577 62.9507 45.2391 63.3704 45.7978 63.3704Z" fill="#D8B596"/>
<path d="M53.3064 25.915C53.5801 25.4198 53.8718 24.9361 54.1736 24.4777C54.5114 23.9644 54.3691 23.2744 53.8558 22.9366C53.3423 22.5987 52.6526 22.7409 52.3147 23.2542C51.9815 23.7604 51.6598 24.2936 51.3587 24.839C51.0615 25.3767 51.2566 26.0537 51.7946 26.3508C51.965 26.445 52.1497 26.4898 52.3316 26.4898C52.7234 26.4898 53.1036 26.2823 53.3064 25.915Z" fill="#D8B596"/>
<path d="M14.5934 28.5625C14.3807 27.986 13.7408 27.6906 13.1644 27.9037C12.5879 28.1163 12.2929 28.7561 12.5056 29.3326C12.6986 29.8562 12.8796 30.3975 13.0434 30.942C13.1883 31.4235 13.6303 31.7343 14.1084 31.7343C14.2146 31.7343 14.3225 31.7191 14.4295 31.6869C15.018 31.5099 15.3515 30.8893 15.1744 30.3008C14.9975 29.7132 14.8021 29.1283 14.5934 28.5625Z" fill="#D8B596"/>
<path d="M14.7311 32.9579C14.1264 33.0672 13.7249 33.6462 13.8344 34.2508C13.9347 34.8053 14.0218 35.3726 14.0931 35.9368C14.1643 36.4991 14.6432 36.91 15.1957 36.91C15.2421 36.91 15.2893 36.907 15.3368 36.9011C15.9464 36.824 16.3781 36.2672 16.3011 35.6576C16.2247 35.0544 16.1315 34.4478 16.0243 33.8547C15.9146 33.2498 15.3347 32.8482 14.7311 32.9579Z" fill="#D8B596"/>
<path d="M18.5779 15.7195C19.1643 15.5357 19.4907 14.9114 19.3069 14.3251C19.1231 13.7387 18.499 13.4121 17.9125 13.5961C17.3992 13.7569 16.8601 13.8967 16.3104 14.0113C15.7088 14.1368 15.323 14.7261 15.4485 15.3278C15.558 15.8527 16.0207 16.2135 16.5365 16.2135C16.6119 16.2135 16.6883 16.2058 16.765 16.1898C17.3854 16.0603 17.9954 15.902 18.5779 15.7195Z" fill="#D8B596"/>
<path d="M15.4311 42.1932C15.4407 42.1933 15.4504 42.1935 15.4599 42.1935C16.0613 42.1935 16.5563 41.7138 16.5716 41.1091C16.5795 40.7994 16.5835 40.484 16.5835 40.1717C16.5835 39.8778 16.5799 39.5809 16.573 39.2893C16.5583 38.6749 16.0537 38.1923 15.4339 38.2036C14.8196 38.2185 14.3335 38.7284 14.3482 39.3427C14.3548 39.6167 14.3582 39.8956 14.3582 40.1717C14.3582 40.4653 14.3545 40.7615 14.347 41.0526C14.3315 41.667 14.8169 42.1776 15.4311 42.1932Z" fill="#D8B596"/>
<path d="M7.10507 20.974C7.50593 21.3333 7.89981 21.7251 8.27603 22.1385C8.49545 22.3795 8.79676 22.5021 9.0991 22.5021C9.36644 22.5021 9.63451 22.4062 9.84785 22.2122C10.3023 21.7984 10.3353 21.0948 9.92173 20.6404C9.49521 20.1717 9.04733 19.7267 8.59084 19.3173C8.13332 18.907 7.42997 18.9454 7.01962 19.4028C6.60942 19.8603 6.6477 20.5637 7.10507 20.974Z" fill="#D8B596"/>
<path d="M8.03811 17.5539L8.3682 16.6702C8.39594 16.5961 8.44282 16.5499 8.47739 16.524C8.96992 16.1564 9.0711 15.4593 8.70348 14.9668C8.33601 14.4744 7.63874 14.3732 7.14635 14.7407C6.75351 15.0338 6.45517 15.4319 6.28352 15.8915L5.95344 16.7751C5.73847 17.3507 6.03073 17.9917 6.60634 18.2067C6.73467 18.2546 6.86611 18.2773 6.99563 18.2773C7.44662 18.2776 7.87106 18.0013 8.03811 17.5539Z" fill="#D8B596"/>
<path d="M12.9899 14.4133C12.4384 14.4367 11.8645 14.4415 11.3012 14.4271C10.6881 14.4143 10.1763 14.8966 10.1605 15.511C10.1448 16.1253 10.6301 16.6359 11.2444 16.6516C11.4773 16.6576 11.711 16.6606 11.9451 16.6606C12.3278 16.6606 12.7113 16.6525 13.0849 16.6365C13.6988 16.6104 14.1753 16.0915 14.1492 15.4774C14.1228 14.8637 13.6035 14.3869 12.9899 14.4133Z" fill="#D8B596"/>
<path d="M11.8196 63.6009C11.8861 63.6009 11.9536 63.5948 12.0212 63.5825C12.569 63.4822 13.128 63.4021 13.6827 63.3445C14.2939 63.281 14.7379 62.7341 14.6744 62.1228C14.6108 61.5116 14.0632 61.067 13.4527 61.1311C12.841 61.1946 12.2246 61.2828 11.6205 61.3935C11.016 61.5042 10.6157 62.084 10.7264 62.6884C10.8248 63.2253 11.2928 63.6009 11.8196 63.6009Z" fill="#D8B596"/>
<path d="M16.0151 46.5431C16.1233 45.9503 16.2172 45.344 16.2943 44.7406C16.3722 44.131 15.9414 43.5736 15.3318 43.4958C14.7213 43.4177 14.165 43.8488 14.087 44.4583C14.0149 45.0226 13.9269 45.5896 13.8259 46.1437C13.7156 46.7483 14.1163 47.3278 14.7207 47.4381C14.7882 47.4504 14.8554 47.4564 14.9217 47.4564C15.4489 47.4564 15.9171 47.0802 16.0151 46.5431Z" fill="#D8B596"/>
<path d="M11.1307 26.2474C11.3307 26.6238 11.7158 26.8383 12.1143 26.8383C12.2904 26.8383 12.469 26.7965 12.6353 26.7081C13.178 26.4198 13.3842 25.7463 13.096 25.2035C12.8043 24.6543 12.4922 24.1162 12.1683 23.6042C11.8397 23.085 11.1524 22.9304 10.6331 23.2588C10.1139 23.5873 9.95917 24.2746 10.2878 24.794C10.5817 25.2587 10.8653 25.7476 11.1307 26.2474Z" fill="#D8B596"/>
<path d="M14.4173 48.709C13.8293 48.5311 13.2081 48.8634 13.0301 49.4515C12.8651 49.9964 12.6834 50.5376 12.4896 51.0598C12.276 51.636 12.5699 52.2763 13.1461 52.4899C13.2737 52.5373 13.4042 52.5597 13.5327 52.5597C13.9847 52.5597 14.4098 52.2821 14.5761 51.8335C14.7854 51.2688 14.9818 50.6843 15.1599 50.0962C15.3379 49.508 15.0054 48.8868 14.4173 48.709Z" fill="#D8B596"/>
<path d="M43.0348 12.0936C42.6087 11.8285 42.195 11.537 41.8042 11.2266L41.7108 11.1517C41.2334 10.7646 40.533 10.8381 40.1458 11.3153C39.7589 11.7927 39.8321 12.4934 40.3095 12.8803C40.3466 12.9104 40.3839 12.9403 40.4208 12.9696C40.8773 13.3322 41.3612 13.6731 41.859 13.9829C42.0419 14.0968 42.2451 14.151 42.4459 14.151C42.8175 14.151 43.1807 13.9648 43.3916 13.626C43.7162 13.1043 43.5564 12.4182 43.0348 12.0936Z" fill="#D8B596"/>
<path d="M40.6541 64.572C40.7795 64.572 40.9068 64.5507 41.0314 64.5058C41.5554 64.317 42.0938 64.1462 42.6311 63.9983C43.2236 63.8353 43.5718 63.2229 43.4088 62.6304C43.2456 62.038 42.633 61.6893 42.0408 61.8527C41.4481 62.0157 40.8547 62.2041 40.2767 62.4123C39.6986 62.6207 39.3989 63.2582 39.6072 63.8363C39.7708 64.2898 40.1982 64.572 40.6541 64.572Z" fill="#D8B596"/>
<path d="M22.2595 11.3767C21.8323 11.7032 21.3777 12.0079 20.9083 12.2825C20.378 12.5929 20.1996 13.2744 20.5098 13.8048C20.7169 14.1586 21.0889 14.3556 21.4712 14.3556C21.6621 14.3556 21.8554 14.3065 22.0321 14.2031C22.58 13.8825 23.1111 13.5263 23.6106 13.1446C24.099 12.7715 24.1922 12.0732 23.819 11.5849C23.4461 11.0967 22.7478 11.0035 22.2595 11.3767Z" fill="#D8B596"/>
<path d="M23.9716 64.7088C24.4202 64.7088 24.8431 64.4354 25.0119 63.991C25.2303 63.4166 24.9414 62.774 24.367 62.5557C23.7927 62.3375 23.2027 62.139 22.6131 61.9657C22.0236 61.7923 21.4051 62.1299 21.232 62.7197C21.0587 63.3092 21.3962 63.9276 21.9859 64.1008C22.5206 64.2579 23.0557 64.4379 23.5766 64.6358C23.7068 64.6853 23.8403 64.7088 23.9716 64.7088Z" fill="#D8B596"/>
<path d="M9.81574 58.1735C9.36282 57.7586 8.65902 57.7893 8.24363 58.2423C7.86637 58.6542 7.47115 59.0446 7.06911 59.4025C6.6101 59.8112 6.5693 60.5145 6.97802 60.9734C7.19788 61.2204 7.50305 61.3462 7.8094 61.3462C8.07258 61.3462 8.3368 61.2534 8.5488 61.0646C9.00691 60.6567 9.45628 60.2129 9.88443 59.7456C10.2997 59.2924 10.2688 58.5886 9.81574 58.1735Z" fill="#D8B596"/>
<path d="M10.6055 57.1289C10.7907 57.2465 10.9973 57.3027 11.2016 57.3027C11.5694 57.3027 11.9294 57.1204 12.1416 56.7871C12.4668 56.2758 12.7801 55.7383 13.0731 55.1896C13.3626 54.6475 13.1577 53.9734 12.6156 53.6841C12.0734 53.3946 11.3994 53.5995 11.1101 54.1416C10.8436 54.6408 10.5589 55.1291 10.2639 55.593C9.93393 56.1115 10.087 56.7991 10.6055 57.1289Z" fill="#D8B596"/>
<path d="M8.04248 62.342L7.91504 62.3871C7.79888 62.4284 7.67085 62.3943 7.58644 62.3065C7.16066 61.8637 6.45612 61.8497 6.01328 62.2758C5.5703 62.7017 5.55665 63.4061 5.98257 63.8489C6.46013 64.3455 7.12743 64.6303 7.81357 64.6303C8.1033 64.6303 8.38918 64.5806 8.66334 64.4827L8.78084 64.4412C9.36061 64.2373 9.66518 63.6021 9.46134 63.0225C9.2572 62.4427 8.6221 62.1378 8.04248 62.342Z" fill="#D8B596"/>
<path d="M17.0359 63.2565C17.5915 63.2852 18.1533 63.3363 18.7057 63.4086C18.7547 63.415 18.8032 63.4181 18.8513 63.4181C19.4015 63.4181 19.88 63.0098 19.9531 62.4495C20.0328 61.8402 19.6034 61.2816 18.994 61.2021C18.3841 61.1223 17.7638 61.0659 17.1505 61.0342C16.5378 61.003 16.0137 61.4743 15.982 62.0881C15.9505 62.7017 16.4223 63.2248 17.0359 63.2565Z" fill="#D8B596"/>
<path d="M19.8797 65.8579C18.5847 65.5896 17.2574 65.4534 15.9343 65.4534C12.1836 65.4534 8.54539 66.5261 5.41318 68.5558C5.25415 68.6589 5.10401 68.6286 5.02865 68.6013C4.95566 68.5751 4.82525 68.5049 4.77125 68.3318L2.24478 60.2399C2.18084 60.0352 2.29166 59.814 2.50276 59.7251C7.42784 57.6517 11.14 51.2731 11.9598 43.4745C12.024 42.8633 11.5806 42.3159 10.9695 42.2516C10.3581 42.1883 9.81085 42.6307 9.74661 43.2419C9.01048 50.2457 5.82813 55.9108 1.63949 57.6741C0.366164 58.2101 -0.286743 59.5983 0.120786 60.9032L2.64726 68.995C2.89605 69.7917 3.48843 70.4111 4.27293 70.6944C4.56934 70.8016 4.8754 70.8544 5.17938 70.8544C5.68408 70.8544 6.18329 70.7087 6.62331 70.4236C9.39442 68.628 12.6142 67.679 15.9345 67.679C17.106 67.679 18.2816 67.7996 19.4282 68.0371C20.0298 68.1622 20.6189 67.7751 20.7435 67.1734C20.868 66.5715 20.4814 65.9826 19.8797 65.8579Z" fill="#D8B596"/>
<path d="M1.67473 22.6843C6.09242 24.5705 9.37625 30.8485 9.84609 38.3066C9.88318 38.896 10.3729 39.3494 10.9555 39.3494C10.9791 39.3494 11.0027 39.3486 11.0265 39.3472C11.6398 39.3084 12.1057 38.78 12.0671 38.1667C11.8113 34.1068 10.7878 30.3088 9.10713 27.1831C7.3969 24.0027 5.12916 21.7394 2.54868 20.6377C2.35211 20.5538 2.25553 20.3155 2.33357 20.1066L5.49099 11.6538C5.56769 11.4484 5.79097 11.3338 5.99941 11.3941C7.88647 11.9353 9.88674 12.2099 11.9447 12.2099C19.2423 12.2099 24.0667 8.62236 24.8501 2.61326C24.8796 2.38851 25.0555 2.22532 25.2687 2.22532H38.9875C39.2008 2.22532 39.3768 2.38836 39.406 2.61311C40.1893 8.62221 45.0138 12.2099 52.3114 12.2099C54.3695 12.2099 56.3697 11.9354 58.2568 11.3941C58.4648 11.334 58.6884 11.4482 58.7652 11.6538L61.9226 20.1066C62.0007 20.3155 61.9043 20.5538 61.7077 20.6377C59.9053 21.4072 58.2627 22.7367 56.8258 24.5894C56.4493 25.075 56.5377 25.7739 57.0231 26.1506C57.5084 26.5271 58.2074 26.4388 58.5842 25.9533C59.7865 24.4031 61.1313 23.3034 62.5813 22.6843C63.8771 22.1311 64.5036 20.6567 64.0072 19.3279L60.8497 10.8751C60.3692 9.58859 58.9613 8.87723 57.6431 9.25479C55.9557 9.73887 54.1618 9.98425 52.3114 9.98425C46.1466 9.98425 42.2471 7.19267 41.6128 2.32531C41.4399 0.99976 40.3114 0 38.9875 0H25.2687C23.945 0 22.8164 0.99976 22.6436 2.3256C22.0091 7.19296 18.1096 9.98455 11.9449 9.98455C10.0944 9.98455 8.30068 9.73917 6.61315 9.25509C5.29561 8.87738 3.88714 9.58889 3.40647 10.8753L0.24904 19.3282C-0.247502 20.6567 0.37885 22.1309 1.67473 22.6843Z" fill="#D8B596"/>
<path d="M62.6163 57.6742C60.3455 56.7183 58.2721 54.5132 56.7778 51.4649C55.1887 48.2231 54.3487 44.318 54.3487 40.1718C54.3487 36.5923 54.9917 33.1273 56.208 30.1514C56.4405 29.5827 56.1678 28.933 55.5992 28.7005C55.0307 28.4681 54.3806 28.7407 54.1483 29.3094C52.8236 32.55 52.1235 36.3062 52.1235 40.1718C52.1235 44.6556 53.042 48.8994 54.78 52.4445C56.5107 55.9751 58.987 58.5607 61.7531 59.7252C61.9642 59.814 62.075 60.0352 62.011 60.2399L59.4846 68.3318C59.4306 68.5049 59.3002 68.5751 59.2273 68.6014C59.1515 68.6287 59.0017 68.6589 58.8426 68.5558C55.7104 66.5262 52.0722 65.4534 48.3215 65.4534C42.1406 65.4534 36.2784 68.4466 32.6403 73.4601C32.5164 73.6304 32.3247 73.7322 32.1274 73.7322C31.93 73.7322 31.7384 73.6304 31.6147 73.4601C29.8812 71.0713 27.589 69.0792 24.9858 67.6989C24.4428 67.4111 23.7694 67.6178 23.4815 68.1606C23.1935 68.7034 23.4003 69.377 23.9432 69.6649C26.2483 70.8872 28.2782 72.6516 29.8135 74.7673C30.3546 75.5124 31.2195 75.9575 32.1274 75.9575C33.0353 75.9575 33.9003 75.5125 34.4412 74.7671C37.6621 70.3286 42.8509 67.6789 48.3213 67.6789C51.6417 67.6789 54.8614 68.6279 57.6325 70.4234C58.3379 70.8804 59.1947 70.979 59.9832 70.6943C60.7675 70.411 61.3601 69.7916 61.6087 68.9949L64.1352 60.9031C64.5424 59.5983 63.8895 58.2102 62.6163 57.6742Z" fill="#D8B596"/>
<path d="M32.1284 43.0331C36.4537 43.0331 39.9727 39.5142 39.9727 35.1889C39.9727 33.9381 39.6768 32.7557 39.154 31.7054L40.1958 30.6636C40.6303 30.2291 40.6303 29.5246 40.1958 29.0902C39.7611 28.6557 39.0567 28.6557 38.6222 29.0902L37.8653 29.8471C36.4322 28.309 34.3913 27.3447 32.1284 27.3447C27.8031 27.3447 24.2842 30.8636 24.2842 35.1889C24.2842 39.5142 27.8031 43.0331 32.1284 43.0331ZM32.1284 29.57C33.7778 29.57 35.2633 30.2845 36.2921 31.4201L31.9749 35.7374L30.7342 34.4967C30.2997 34.0622 29.5951 34.0622 29.1607 34.4967C28.7262 34.9312 28.7262 35.6357 29.1607 36.0701L31.1883 38.0977C31.3969 38.3064 31.6799 38.4236 31.975 38.4236C32.2701 38.4236 32.553 38.3064 32.7619 38.0977L37.4552 33.4043C37.6438 33.9654 37.7475 34.5652 37.7475 35.1891C37.7475 38.2873 35.227 40.808 32.1286 40.808C29.0303 40.808 26.5096 38.2873 26.5096 35.1891C26.5096 32.0908 29.0302 29.57 32.1284 29.57Z" fill="#D8B596"/>
<path d="M29.9877 50.4357C29.3732 50.4357 28.875 50.9339 28.875 51.5484C28.875 52.1629 29.3732 52.661 29.9877 52.661H34.2683C34.8829 52.661 35.3809 52.1629 35.3809 51.5484C35.3809 50.9339 34.8829 50.4357 34.2683 50.4357H29.9877Z" fill="#D8B596"/>
<path d="M23.7344 55.8507C23.7344 56.4652 24.2325 56.9634 24.847 56.9634H39.4082C40.0228 56.9634 40.5208 56.4652 40.5208 55.8507C40.5208 55.2362 40.0228 54.738 39.4082 54.738H24.847C24.2325 54.738 23.7344 55.2362 23.7344 55.8507Z" fill="#D8B596"/>
</svg>
