<?xml version="1.0" encoding="UTF-8" standalone="no"?><!DOCTYPE svg PUBLIC "-//W3C//DTD SVG 1.1//EN" "http://www.w3.org/Graphics/SVG/1.1/DTD/svg11.dtd"><svg width="68" height="69" viewBox="0 0 68 69" fill="none" xmlns="http://www.w3.org/2000/svg">
<g clip-path="url(#clip0)">
<path d="M22.667 0.478638C13.2782 0.478638 5.66699 8.08982 5.66699 17.4786V29.9453C5.67195 34.3246 9.22098 37.8737 13.6003 37.8786H14.7337V35.612H13.6003C10.4723 35.6083 7.93734 33.0733 7.93366 29.9453V17.4786C7.93366 9.34159 14.5299 2.7453 22.667 2.7453C30.804 2.7453 37.4003 9.34159 37.4003 17.4786V29.9453C37.3966 33.0733 34.8617 35.6083 31.7337 35.612H30.6003V37.8786H31.7337C36.113 37.8737 39.662 34.3246 39.667 29.9453V17.4786C39.667 8.08982 32.0558 0.478638 22.667 0.478638Z" fill="#D8B596"/>
<path d="M9.33975 53.8915L10.1682 52.5871L8.25402 51.3721L7.42555 52.6777C4.91989 56.6263 5.1059 61.7104 7.89362 65.4651V68.4787H10.1603V65.0787C10.1604 64.8213 10.0729 64.5714 9.91208 64.3703C7.50262 61.3582 7.27269 57.1482 9.33975 53.8915Z" fill="#D8B596"/>
<path d="M62.3336 0.478638H47.6003C44.4723 0.482321 41.9373 3.0173 41.9336 6.1453V17.4786C41.9373 20.6066 44.4723 23.1416 47.6003 23.1453H49.8669V27.6786C49.8668 28.1369 50.1427 28.5503 50.5662 28.7258C50.7037 28.7832 50.8512 28.8124 51.0003 28.812C51.3009 28.812 51.589 28.6924 51.8015 28.4799L57.1361 23.1453H62.3336C65.4616 23.1416 67.9966 20.6066 68.0003 17.4786V6.1453C67.9966 3.0173 65.4616 0.482321 62.3336 0.478638ZM65.7336 17.4786C65.7336 19.3564 64.2114 20.8786 62.3336 20.8786H56.6669C56.3663 20.8786 56.0782 20.9982 55.8657 21.2107L52.1336 24.9428V22.012C52.1336 21.3861 51.6261 20.8786 51.0003 20.8786H47.6003C45.7225 20.8786 44.2003 19.3564 44.2003 17.4786V6.1453C44.2003 4.26751 45.7225 2.7453 47.6003 2.7453H62.3336C64.2114 2.7453 65.7336 4.26751 65.7336 6.1453V17.4786Z" fill="#D8B596"/>
<path d="M55.5339 6.14532H47.6006V8.41199H55.5339V6.14532Z" fill="#D8B596"/>
<path d="M62.3331 6.14532H57.7998V8.41199H62.3331V6.14532Z" fill="#D8B596"/>
<path d="M62.3339 10.6786H47.6006V12.9453H62.3339V10.6786Z" fill="#D8B596"/>
<path d="M55.5339 15.212H47.6006V17.4786H55.5339V15.212Z" fill="#D8B596"/>
<path d="M37.9077 52.6777L37.0792 51.3721L35.165 52.5871L35.9935 53.8927C38.0607 57.1489 37.8308 61.3586 35.4212 64.3703C35.2604 64.5714 35.1728 64.8213 35.173 65.0787V68.4787H37.4396V65.4651C40.2274 61.7104 40.4134 56.6263 37.9077 52.6777Z" fill="#D8B596"/>
<path d="M66.8667 39.012H56.6667C52.4144 39.0169 48.9223 42.3736 48.7492 46.6223L45.3333 52.7718V48.0787C45.3284 43.6993 41.7793 40.1503 37.4 40.1453H33.2577L33.2271 40.1215L33.2067 40.1453H30.6C29.3481 40.1453 28.3333 39.1306 28.3333 37.8787V35.2119C31.8352 33.1901 33.9946 29.4556 34 25.412V16.3453C33.9983 14.4675 33.5311 12.6195 32.64 10.9665C32.3545 10.4407 31.7094 10.2272 31.1667 10.4792L11.9839 19.5051C11.5866 19.6921 11.3332 20.0917 11.3333 20.5307V25.412C11.3387 29.4556 13.4981 33.1901 17 35.2119V37.8787C17 39.1306 15.9852 40.1453 14.7333 40.1453H7.93333C3.55399 40.1503 0.00495833 43.6993 0 48.0787V68.4786H2.26667V48.0787C2.27035 44.9506 4.80533 42.4157 7.93333 42.412H11.5396L21.7453 56.6716C21.9549 56.9647 22.2915 57.1405 22.6519 57.1453H22.6667C23.0234 57.1453 23.3593 56.9773 23.5733 56.692L34.34 42.412H37.4C40.528 42.4157 43.063 44.9506 43.0667 48.0787V57.1453C43.0672 57.7712 43.5751 58.2782 44.201 58.2777C44.6121 58.2772 44.9908 58.0544 45.1905 57.695L50.5331 48.0787H57.0305L45.9805 68.4786H48.5588L59.6133 48.0787H60.0667C64.446 48.0737 67.995 44.5247 68 40.1453C68 39.5194 67.4925 39.012 66.8667 39.012ZM13.6 25.412V21.2504L31.0998 13.0156C31.5184 14.0758 31.7333 15.2055 31.7333 16.3453V25.412C31.7333 30.4193 27.674 34.4787 22.6667 34.4787C17.6593 34.4787 13.6 30.4193 13.6 25.412ZM22.6905 54.0989L19.193 49.212H26.3738L22.6905 54.0989ZM28.0885 46.9453H17.5667L14.3219 42.412H14.7333C17.237 42.412 19.2667 40.3823 19.2667 37.8787V36.2229C21.4798 36.9194 23.8535 36.9194 26.0667 36.2229V37.8787C26.0667 40.3823 28.0963 42.412 30.6 42.412H31.5067L28.0885 46.9453ZM60.0667 45.812H51.1133C51.6552 43.1751 53.9747 41.2816 56.6667 41.2787H65.62C65.0781 43.9155 62.7586 45.809 60.0667 45.812Z" fill="#D8B596"/>
</g>
<defs>
<clipPath id="clip0">
<rect width="68" height="68" fill="white" transform="translate(0 0.478638)"/>
</clipPath>
</defs>
</svg>
